{"glyphs":{"0":{"ha":968,"x_min":0,"x_max":0,"o":"m 697 435 b 902 704 675 539 1019 461 b 682 661 844 823 745 620 b 741 881 619 702 843 768 b 538 839 682 946 614 831 b 379 898 462 848 501 948 b 397 624 258 848 455 720 b 99 424 338 528 95 635 b 247 367 101 259 218 442 b 140 125 275 293 70 250 b 427 169 210 0 336 200 b 586 13 519 139 423 -7 b 645 267 749 32 579 214 b 882 304 736 341 841 128 b 697 435 925 487 719 330 z m 575 430 b 801 315 595 361 784 400 b 565 345 819 230 647 387 b 573 139 460 291 688 158 b 482 319 446 117 556 281 b 275 252 379 372 351 185 b 442 441 199 319 449 354 b 203 461 436 528 236 374 b 439 570 170 549 390 513 b 440 741 487 626 455 639 b 557 780 425 844 496 787 b 664 776 618 773 599 822 b 626 607 730 730 564 652 b 763 591 687 561 712 683 b 575 430 815 500 556 500 z "},"1":{"ha":739,"x_min":0,"x_max":0,"o":"m 310 38 b 542 95 355 -62 489 30 b 561 285 613 180 670 262 b 411 276 452 308 438 247 b 641 759 383 306 643 573 b 553 883 638 945 582 886 b 519 803 523 881 565 795 b 423 883 473 812 490 918 b 281 636 356 849 398 690 b 122 410 164 582 -9 483 b 423 740 254 337 360 715 b 490 623 486 766 425 613 b 576 753 555 634 534 772 b 335 302 618 734 465 362 b 258 162 241 258 193 197 b 446 187 323 126 421 226 b 310 38 471 147 273 122 z "},"2":{"ha":833,"x_min":0,"x_max":0,"o":"m 354 464 b 475 570 427 472 476 488 b 258 691 473 651 253 625 b 403 737 262 758 373 682 b 460 810 434 792 379 823 b 518 625 542 796 445 664 b 647 681 590 586 595 695 b 522 487 698 668 615 552 b 242 253 431 423 297 327 b 117 109 188 178 139 90 b 144 184 96 129 109 167 b 375 74 178 200 302 143 b 692 42 447 5 595 0 b 643 301 788 84 780 276 b 457 158 507 326 562 209 b 105 208 351 108 217 306 b 129 17 49 158 13 -3 b 443 375 236 35 186 282 b 804 785 588 428 893 636 b 595 738 658 1027 680 696 b 456 892 531 769 595 874 b 327 791 317 910 383 831 b 195 677 271 751 188 793 b 354 464 203 562 290 457 z "},"3":{"ha":799,"x_min":0,"x_max":0,"o":"m 259 470 b 305 596 328 462 362 545 b 194 705 247 648 146 660 b 303 646 241 751 253 671 b 384 679 352 620 394 614 b 441 784 374 745 378 808 b 403 616 504 761 378 666 b 512 588 429 567 526 666 b 419 456 498 511 372 503 b 514 419 467 408 541 469 b 415 339 487 369 350 386 b 601 248 481 292 645 333 b 310 153 558 163 328 86 b 376 335 293 220 403 258 b 181 419 348 412 240 489 b 144 127 122 349 103 179 b 455 1 186 76 312 -27 b 700 282 597 28 698 191 b 570 393 702 373 566 347 b 619 482 574 438 639 422 b 540 507 599 541 534 464 b 653 644 546 551 686 563 b 558 673 619 725 568 630 b 566 858 548 717 661 810 b 392 871 471 905 443 905 b 354 765 340 838 388 796 b 213 806 320 733 271 830 b 99 658 156 782 101 721 b 259 470 97 594 124 485 z "},"4":{"ha":814,"x_min":0,"x_max":0,"o":"m 239 895 b 78 555 36 888 20 641 b 276 625 135 469 241 647 b 179 409 311 603 84 480 b 426 524 274 339 391 526 b 479 405 462 522 413 411 b 691 714 545 398 647 703 b 583 394 735 725 649 480 b 492 -3 517 308 281 3 b 640 365 704 -10 642 266 b 717 817 638 464 810 771 b 479 461 625 864 523 475 b 470 594 435 446 512 581 b 236 467 428 608 281 427 b 349 685 192 506 389 619 b 199 639 309 751 236 647 b 221 687 161 630 122 641 b 239 895 320 733 325 897 z "},"5":{"ha":982,"x_min":0,"x_max":0,"o":"m 742 939 b 644 727 567 921 689 745 b 510 843 600 709 563 843 b 441 739 457 843 477 772 b 306 825 404 707 371 794 b 99 670 241 855 108 847 b 365 584 90 492 306 598 b 349 478 424 570 320 529 b 469 513 377 427 423 536 b 428 413 515 490 381 443 b 614 440 475 382 536 429 b 671 291 691 452 708 413 b 324 231 634 168 377 109 b 228 440 271 354 306 427 b 153 150 151 454 27 384 b 606 64 279 -85 506 9 b 787 440 706 119 848 348 b 530 486 726 533 608 486 b 496 560 453 486 547 533 b 418 572 445 587 406 482 b 222 686 430 662 220 619 b 485 635 224 753 406 600 b 542 749 565 670 475 755 b 616 562 610 744 563 574 b 848 692 669 549 763 605 b 742 939 934 780 846 950 z "},"6":{"ha":1075,"x_min":0,"x_max":0,"o":"m 931 819 b 705 701 835 869 762 665 b 507 887 648 736 742 936 b 425 711 394 863 531 732 b 120 771 319 690 302 976 b 288 445 32 672 281 519 b 109 293 295 371 151 413 b 302 41 66 173 163 74 b 473 148 441 8 397 203 b 674 29 547 93 495 -6 b 837 343 853 64 856 251 b 523 536 818 434 648 533 b 349 361 399 538 351 439 b 521 338 347 284 474 300 b 745 288 568 376 693 380 b 594 107 797 196 698 88 b 476 232 490 125 561 208 b 354 147 417 248 417 192 b 201 220 290 102 224 116 b 330 445 177 324 293 357 b 281 684 368 533 224 630 b 462 651 337 738 363 576 b 566 788 589 748 490 786 b 648 533 641 790 615 576 b 901 552 681 491 851 475 b 931 819 950 630 1025 769 z "},"7":{"ha":890,"x_min":0,"x_max":0,"o":"m 99 658 b 298 542 103 579 183 461 b 567 800 413 622 508 780 b 691 800 626 819 691 850 b 590 715 691 749 608 784 b 701 656 572 647 689 687 b 660 572 714 626 732 590 b 431 441 588 554 527 536 b 291 -27 334 346 155 99 b 504 190 427 -152 518 100 b 545 470 490 280 488 434 b 782 581 603 506 737 500 b 717 712 827 662 710 687 b 784 791 725 737 782 733 b 579 918 786 848 683 941 b 339 821 475 895 413 805 b 99 658 266 837 90 830 z "},"8":{"ha":924,"x_min":0,"x_max":0,"o":"m 762 606 b 762 807 850 651 843 731 b 575 785 681 883 631 785 b 482 893 520 785 586 876 b 373 779 378 909 410 816 b 229 807 335 742 306 818 b 183 560 153 796 149 651 b 456 418 216 468 469 483 b 118 247 443 353 170 351 b 203 44 66 143 129 74 b 391 76 278 15 335 93 b 462 -2 447 59 380 -2 b 564 70 544 -1 508 61 b 661 0 620 80 562 -13 b 717 212 760 13 800 134 b 540 418 633 290 535 351 b 762 606 547 515 674 562 z m 657 102 b 560 173 609 70 626 186 b 462 76 495 160 508 80 b 395 176 416 72 460 167 b 215 167 330 186 267 115 b 421 340 165 219 337 312 b 486 446 505 368 524 425 b 281 692 252 584 250 651 b 412 679 313 733 361 660 b 482 796 462 697 436 807 b 536 623 529 785 475 634 b 618 725 598 612 583 707 b 700 664 654 744 719 722 b 516 415 681 606 529 483 b 657 102 503 346 706 134 z "},"9":{"ha":1160,"x_min":0,"x_max":0,"o":"m 169 94 b 409 219 272 41 349 256 b 619 22 469 182 370 -30 b 705 208 739 47 593 185 b 1028 144 818 230 836 -73 b 851 490 1122 250 858 411 b 1051 669 843 569 1006 542 b 836 918 1096 797 983 883 b 608 777 689 953 696 731 b 472 907 511 827 622 898 b 269 598 279 917 249 696 b 601 394 289 501 469 396 b 786 578 734 391 783 496 b 620 639 788 661 670 679 b 391 671 571 599 446 574 b 487 858 336 769 377 877 b 574 736 596 838 465 799 b 781 806 651 692 714 758 b 902 712 848 853 877 822 b 806 490 927 602 846 583 b 858 237 766 396 918 294 b 666 271 798 179 771 351 b 556 127 532 169 636 129 b 469 396 452 124 582 340 b 202 376 381 440 277 439 b 169 94 71 268 70 147 z "},"\u0000":{"ha":0,"x_min":0,"x_max":0,"o":""},"\n":{"ha":0,"x_min":0,"x_max":0,"o":""},"\r":{"ha":0,"x_min":0,"x_max":0,"o":""}," ":{"ha":646,"x_min":0,"x_max":0,"o":""},"!":{"ha":589,"x_min":0,"x_max":0,"o":"m 234 206 b 148 71 190 179 132 130 b 278 1 172 -20 239 -35 b 290 182 312 31 310 89 b 234 206 284 207 256 219 z m 457 888 b 100 638 320 1005 77 786 b 295 597 123 490 285 623 b 164 397 305 572 99 488 b 338 422 229 305 324 455 b 300 327 346 403 322 360 b 311 317 295 320 304 311 b 430 464 362 357 439 426 b 254 476 415 520 290 445 b 396 616 219 507 396 567 b 240 678 396 666 205 618 b 457 888 275 737 594 771 z "},"\"":{"ha":497,"x_min":0,"x_max":0,"o":"m 174 1112 b 117 968 67 1136 100 1029 b 115 818 128 930 121 862 b 138 808 113 805 130 798 b 174 1112 246 943 273 1089 z m 337 1112 b 280 968 230 1136 264 1029 b 278 818 291 930 285 862 b 301 808 277 805 293 798 b 337 1112 410 943 436 1089 z "},"#":{"ha":1106,"x_min":0,"x_max":0,"o":"m 662 423 b 1004 460 797 390 986 350 b 835 531 1030 612 877 549 b 690 476 806 518 761 493 b 773 814 757 590 894 785 b 652 469 619 852 663 618 b 566 461 626 465 598 462 b 495 473 545 461 520 465 b 584 812 562 582 702 769 b 462 483 466 854 480 633 b 128 473 329 529 166 620 b 455 436 98 358 318 410 b 444 397 452 422 448 409 b 411 328 433 372 423 349 b 99 291 283 358 99 405 b 373 266 98 187 240 230 b 285 169 338 218 304 189 b 262 -13 253 136 111 16 b 439 283 369 -33 413 147 b 536 297 475 292 509 298 b 588 293 554 296 572 295 b 484 167 547 227 506 191 b 494 -16 452 133 342 10 b 642 284 601 -35 628 147 b 804 223 724 267 774 237 b 983 262 846 204 968 155 b 647 329 999 371 795 351 b 659 415 651 367 654 398 b 662 423 660 418 661 420 z m 639 398 b 605 323 628 370 617 345 b 513 311 564 316 531 311 b 445 320 498 310 474 314 b 464 415 453 362 459 396 b 476 440 467 422 471 430 b 542 448 504 445 528 448 b 647 426 563 447 601 437 b 639 398 645 416 642 406 z "},"$":{"ha":774,"x_min":0,"x_max":0,"o":"m 389 399 b 385 414 387 405 386 410 b 539 478 448 420 512 436 b 359 557 579 538 463 547 b 360 606 359 572 360 588 b 548 554 434 586 516 558 b 627 734 724 533 734 682 b 363 791 543 774 449 793 b 266 1037 362 929 346 1057 b 258 774 187 1016 214 902 b 100 586 165 746 100 684 b 349 499 100 466 234 480 b 354 469 351 489 353 478 b 355 455 355 464 355 460 b 193 410 275 453 193 450 b 361 373 193 379 269 373 b 360 282 362 340 362 309 b 227 310 315 289 270 298 b 66 159 53 359 43 317 b 328 70 76 88 194 60 b 405 -122 311 -14 282 -182 b 457 90 460 -95 469 -10 b 731 276 585 121 701 184 b 389 399 779 426 554 412 z m 217 601 b 315 616 217 628 260 627 b 333 560 322 597 328 578 b 217 601 270 567 217 576 z m 230 399 b 359 413 200 417 274 408 b 360 397 359 407 360 402 b 230 399 297 392 246 389 z m 363 502 b 511 499 443 516 511 530 b 374 456 511 463 445 458 b 363 502 369 474 365 490 z m 422 274 b 396 373 413 309 404 343 b 687 335 532 375 687 382 b 422 274 688 278 565 261 z "},"%":{"ha":932,"x_min":0,"x_max":0,"o":"m 559 384 b 756 801 649 343 898 738 b 579 439 613 863 664 433 b 468 523 494 445 518 563 b 381 316 371 447 464 453 b 41 18 280 149 -30 195 b 416 287 111 -160 375 74 b 559 384 467 551 462 429 z m 258 412 b 425 643 407 428 475 585 b 332 641 375 701 361 665 b 379 603 302 617 381 637 b 288 532 377 569 306 490 b 320 689 270 573 274 673 b 441 768 365 705 481 699 b 117 616 401 838 198 825 b 258 412 73 503 109 397 z m 842 216 b 651 327 749 297 720 325 b 538 273 570 329 614 269 b 459 111 466 277 405 208 b 578 31 512 13 540 67 b 725 -60 616 -5 598 -126 b 842 216 852 5 936 134 z m 687 86 b 616 144 638 86 671 124 b 544 216 560 164 512 191 b 624 186 624 275 582 222 b 759 127 665 150 725 174 b 687 86 792 80 737 87 z "},"&":{"ha":1072,"x_min":0,"x_max":0,"o":"m 756 205 b 734 217 749 209 741 213 b 842 347 785 269 826 319 b 784 516 885 426 857 504 b 600 312 651 537 614 418 b 407 541 517 382 446 465 b 642 668 491 560 591 591 b 509 902 686 735 647 885 b 321 661 371 920 334 769 b 339 565 317 631 325 598 b 99 362 224 519 103 463 b 208 267 95 279 204 316 b 121 125 212 219 75 225 b 238 72 173 13 210 84 b 256 17 266 60 251 57 b 460 -1 260 -23 321 -93 b 508 44 481 13 497 28 b 673 159 555 62 616 107 b 744 -76 716 90 745 11 b 1025 -100 743 -242 926 -224 b 756 205 1125 24 959 97 z m 546 694 b 387 584 545 649 473 618 b 373 667 376 614 371 642 b 546 694 382 800 549 805 z m 496 84 b 421 94 462 71 429 71 b 498 116 405 145 491 192 b 496 84 500 104 499 94 z m 589 180 b 530 102 584 150 560 122 b 422 201 536 169 476 225 b 457 38 341 165 370 55 b 350 20 429 23 391 19 b 285 169 268 23 321 131 b 182 134 250 208 222 82 b 290 272 142 186 282 215 b 141 375 297 328 152 311 b 279 510 132 421 148 443 b 356 530 295 518 322 523 b 537 319 399 454 473 377 b 595 261 556 301 576 282 b 589 180 593 227 591 198 z "},"'":{"ha":333,"x_min":0,"x_max":0,"o":"m 174 1078 b 117 934 67 1102 100 995 b 115 784 128 896 121 828 b 138 774 113 771 130 764 b 174 1078 246 909 273 1055 z "},"(":{"ha":649,"x_min":0,"x_max":0,"o":"m 316 195 b 260 289 250 138 246 192 b 137 442 271 365 248 423 b 137 454 130 443 130 453 b 260 607 248 473 271 531 b 316 701 246 704 250 758 b 528 837 381 643 443 686 b 258 909 614 988 437 968 b 210 575 79 849 170 676 b 113 468 232 519 171 486 b 113 428 94 462 94 434 b 210 321 171 410 232 377 b 258 -13 170 220 79 47 b 528 59 437 -72 614 -92 b 316 195 443 210 381 253 z "},")":{"ha":649,"x_min":0,"x_max":0,"o":"m 536 468 b 439 575 477 486 417 519 b 391 909 478 676 570 849 b 121 837 212 968 35 988 b 333 701 206 686 268 643 b 389 607 399 758 403 704 b 512 454 378 531 401 473 b 512 442 519 453 519 443 b 389 289 401 423 378 365 b 333 195 403 192 399 138 b 121 59 268 253 206 210 b 391 -13 35 -92 212 -72 b 439 321 570 47 478 220 b 536 428 417 377 477 410 b 536 468 555 434 555 462 z "},"*":{"ha":631,"x_min":0,"x_max":0,"o":"m 386 990 b 382 1025 365 989 361 1021 b 392 1026 385 1026 388 1026 b 494 1097 464 1035 533 1017 b 326 1037 466 1155 369 1122 b 293 1050 316 1018 286 1030 b 297 1060 294 1054 295 1057 b 287 1184 326 1127 375 1178 b 255 1009 223 1189 203 1089 b 226 987 266 991 241 971 b 220 995 224 990 222 992 b 108 1048 177 1053 157 1122 b 244 933 72 995 148 928 b 248 898 265 934 269 902 b 238 896 245 897 242 896 b 136 825 166 888 97 905 b 304 886 164 767 261 800 b 337 872 314 905 344 892 b 333 862 336 869 335 866 b 343 738 304 796 255 745 b 375 914 407 734 427 833 b 404 935 364 932 389 951 b 410 927 406 933 408 930 b 522 874 453 869 473 801 b 386 990 558 928 482 995 z "},",":{"ha":376,"x_min":0,"x_max":0,"o":"m 126 -314 b 138 -312 128 -320 138 -319 b 247 -113 136 -261 156 -190 b 221 124 409 23 294 107 b 49 -76 148 141 -33 -1 b 202 10 131 -151 233 -70 b 245 22 171 91 256 77 b 157 -144 234 -33 210 -83 b 126 -314 122 -184 114 -255 z "},"-":{"ha":867,"x_min":0,"x_max":0,"o":"m 759 435 b 453 500 815 540 584 513 b 131 510 370 491 226 501 b 109 488 103 512 87 496 b 759 435 396 372 708 337 z "},".":{"ha":336,"x_min":0,"x_max":0,"o":"m 130 138 b 119 157 139 146 130 161 b 44 58 84 144 50 116 b 167 -74 31 -66 71 -115 b 261 95 233 -45 305 -3 b 124 72 227 172 177 182 b 158 -29 86 -7 202 -6 b 77 87 114 -51 68 66 b 130 138 82 99 102 113 z "},":":{"ha":449,"x_min":0,"x_max":0,"o":"m 257 516 b 326 667 320 550 386 627 b 195 655 267 707 201 742 b 234 577 189 567 282 584 b 156 645 204 573 150 623 b 192 721 159 658 168 692 b 179 738 201 730 190 744 b 118 630 146 721 116 688 b 257 516 122 506 193 482 z m 181 248 b 215 148 143 169 259 170 b 134 263 171 125 125 242 b 187 314 139 276 159 289 b 176 333 196 322 187 338 b 101 234 141 320 107 292 b 224 102 88 110 128 61 b 318 271 290 131 362 173 b 181 248 284 348 234 358 z "},";":{"ha":499,"x_min":0,"x_max":0,"o":"m 294 468 b 363 619 357 502 423 579 b 232 607 304 659 238 695 b 271 530 226 520 316 548 b 192 597 226 512 186 575 b 229 673 196 611 205 645 b 216 691 237 683 226 697 b 155 583 183 673 153 641 b 294 468 159 458 230 434 z m 292 340 b 120 140 218 357 37 215 b 273 227 202 65 304 147 b 316 239 241 307 327 294 b 228 73 305 183 280 134 b 197 -97 192 32 184 -38 b 208 -96 199 -104 209 -103 b 318 103 207 -45 227 27 b 292 340 480 240 365 323 z "},"<":{"ha":611,"x_min":0,"x_max":0,"o":"m 381 303 b 258 273 331 263 300 248 b 254 353 216 299 214 295 b 361 342 294 410 305 393 b 427 589 417 291 564 494 b 244 454 290 685 282 546 b 108 322 221 399 157 352 b 114 285 93 313 97 290 b 248 184 171 270 208 227 b 483 146 302 126 395 5 b 381 303 572 287 431 343 z "},"=":{"ha":590,"x_min":0,"x_max":0,"o":"m 195 351 b 461 454 294 373 517 377 b 114 393 406 532 163 450 b 195 351 94 370 96 329 z m 181 311 b 114 254 137 294 68 279 b 489 263 159 228 455 174 b 181 311 523 353 257 340 z "},">":{"ha":611,"x_min":0,"x_max":0,"o":"m 502 322 b 367 454 454 352 389 399 b 184 589 329 546 321 685 b 250 342 47 494 194 291 b 357 353 305 393 317 410 b 353 273 397 295 395 299 b 230 303 311 248 279 263 b 127 146 180 343 39 287 b 363 184 216 5 309 126 b 496 285 403 227 440 270 b 502 322 514 290 518 313 z "},"?":{"ha":728,"x_min":0,"x_max":0,"o":"m 418 92 b 321 83 374 121 326 147 b 350 26 317 18 383 39 b 319 131 283 21 280 88 b 367 -20 236 178 254 -100 b 418 92 414 5 462 62 z m 615 701 b 396 705 492 847 444 689 b 178 794 348 721 352 947 b 178 473 63 694 82 506 b 263 639 273 439 311 566 b 287 755 215 713 253 767 b 368 564 321 743 324 570 b 511 679 412 558 470 717 b 428 502 553 641 396 550 b 511 456 460 455 557 504 b 366 251 474 416 398 346 b 388 240 362 238 380 228 b 509 409 419 282 457 365 b 494 526 694 566 501 484 b 615 701 486 568 682 621 z "},"@":{"ha":1165,"x_min":0,"x_max":0,"o":"m 1011 342 b 699 195 822 430 790 189 b 544 275 607 201 615 283 b 337 173 472 267 397 130 b 359 422 277 217 381 342 b 174 517 337 501 128 412 b 484 666 220 622 418 634 b 595 835 550 698 490 859 b 714 666 701 811 653 692 b 852 678 776 640 834 769 b 663 400 869 587 697 366 b 675 523 629 434 651 479 b 647 579 699 567 746 664 b 540 634 641 573 625 670 b 448 354 454 599 325 392 b 593 400 571 316 550 416 b 655 320 637 384 548 306 b 909 636 762 334 922 524 b 732 762 877 920 785 702 b 597 897 678 821 836 914 b 454 769 391 881 484 801 b 99 481 379 688 97 879 b 275 376 100 298 265 454 b 329 46 287 290 34 173 b 540 143 546 -47 476 154 b 720 24 603 134 538 -55 b 1011 342 864 86 1199 255 z m 605 509 b 510 436 591 465 550 443 b 510 551 470 428 482 512 b 605 509 589 662 619 553 z "},"A":{"ha":1549,"x_min":0,"x_max":0,"o":"m 1245 345 b 968 279 1153 326 1052 299 b 876 347 939 301 908 324 b 1279 560 1020 410 1301 454 b 939 568 1228 806 964 485 b 1078 873 914 651 1146 750 b 627 501 1003 1005 810 1000 b 428 566 560 534 493 558 b 476 372 144 604 244 362 b 561 373 506 373 534 374 b 545 354 556 366 550 360 b 266 257 493 299 399 257 b 266 9 46 257 39 9 b 612 370 391 9 518 193 b 766 342 672 365 722 356 b 684 235 709 308 671 271 b 890 130 728 105 788 108 b 1006 183 922 137 963 158 b 1272 9 1089 87 1135 -6 b 1245 345 1553 39 1470 391 z m 667 481 b 755 687 713 580 745 662 b 912 788 783 761 834 852 b 804 472 990 724 725 594 b 1103 531 871 368 963 560 b 832 378 1191 513 986 452 b 667 481 779 414 724 450 z m 800 296 b 826 320 806 305 815 313 b 917 268 861 305 890 287 b 800 296 824 249 768 247 z m 1174 144 b 1059 213 1143 156 1104 181 b 1275 298 1138 259 1221 305 b 1174 144 1373 284 1314 89 z "},"B":{"ha":1424,"x_min":0,"x_max":0,"o":"m 1305 375 b 961 539 1216 565 951 477 b 1227 807 970 601 1285 665 b 777 682 1106 1105 836 620 b 849 947 718 744 993 881 b 517 726 760 988 617 898 b 408 862 486 772 450 818 b 264 720 122 1159 -45 681 b 473 636 331 728 407 694 b 404 317 434 544 408 436 b 662 73 391 -103 611 -29 b 535 699 704 157 698 437 b 656 795 573 759 623 809 b 681 568 701 777 615 606 b 966 724 774 515 898 767 b 858 498 1034 680 804 612 b 1186 387 919 371 1203 534 b 959 347 1169 239 1032 321 b 906 77 885 374 567 300 b 1305 375 1244 -147 1378 218 z m 585 191 b 494 616 460 -4 388 341 b 585 191 604 506 674 330 z "},"C":{"ha":1281,"x_min":0,"x_max":0,"o":"m 297 717 b 547 652 330 786 486 617 b 585 799 607 686 532 799 b 655 675 637 799 588 707 b 825 720 684 662 759 715 b 1035 514 924 728 870 491 b 1074 838 1182 535 1258 734 b 682 752 887 942 735 727 b 597 967 646 770 763 955 b 486 745 405 980 537 779 b 129 826 421 702 304 1098 b 378 531 -7 614 358 598 b 216 225 397 464 152 387 b 1160 200 295 23 1216 -181 b 491 140 1115 507 710 102 b 320 377 285 176 160 262 b 461 543 426 453 460 498 b 297 717 462 622 265 649 z "},"D":{"ha":1367,"x_min":0,"x_max":0,"o":"m 109 86 b 325 6 141 6 225 8 b 702 214 617 -1 614 247 b 1049 2 764 191 854 -26 b 1267 303 1128 13 1253 89 b 575 873 1301 827 750 873 b 427 733 400 873 518 733 b 122 810 337 733 122 924 b 284 604 122 696 284 647 b 112 533 284 560 112 598 b 370 397 112 468 215 387 b 744 320 525 407 586 383 b 932 431 901 257 919 352 b 655 523 946 509 777 588 b 258 507 533 458 287 462 b 398 588 228 552 360 543 b 274 727 435 633 246 680 b 484 647 301 775 431 653 b 555 712 537 641 596 655 b 919 759 514 769 606 938 b 980 214 1231 580 1111 279 b 645 245 848 149 803 283 b 299 307 488 207 419 259 b 131 234 226 335 166 281 b 109 86 99 191 89 135 z "},"E":{"ha":1058,"x_min":0,"x_max":0,"o":"m 960 747 b 781 879 960 823 887 879 b 136 641 271 879 132 743 b 280 563 140 539 280 600 b 99 382 280 527 99 494 b 297 333 99 269 278 399 b 163 103 316 267 176 275 b 655 61 154 -3 410 -59 b 902 355 788 125 902 233 b 625 323 902 476 709 473 b 256 152 504 105 255 45 b 499 455 258 308 504 316 b 205 438 496 551 205 376 b 410 604 205 500 410 532 b 224 681 410 676 224 615 b 410 787 224 747 297 796 b 785 630 522 779 710 640 b 960 747 859 619 960 632 z "},"F":{"ha":1096,"x_min":0,"x_max":0,"o":"m 804 556 b 998 763 895 526 998 652 b 804 925 998 874 921 925 b 529 762 732 925 626 833 b 510 822 525 781 519 802 b 99 803 410 1050 99 959 b 386 609 99 648 220 543 b 475 658 415 621 445 638 b 433 557 468 627 454 593 b 386 558 418 558 402 558 b 99 459 166 558 99 516 b 283 372 99 428 196 407 b 395 -7 151 179 235 -7 b 491 328 576 -7 599 219 b 363 401 456 363 409 385 b 420 475 381 425 401 450 b 616 281 490 441 563 380 b 906 247 761 13 906 138 b 476 555 906 347 814 527 b 531 698 505 600 526 647 b 780 812 661 795 780 912 b 804 556 780 744 541 643 z m 418 247 b 284 264 418 115 220 79 b 328 352 294 294 310 323 b 418 247 379 326 418 293 z m 348 449 b 316 415 336 438 326 426 b 175 477 237 436 169 445 b 385 489 181 510 277 529 b 348 449 374 476 361 463 z m 363 680 b 374 863 248 680 271 863 b 481 729 427 863 476 810 b 363 680 437 700 396 680 z "},"G":{"ha":972,"x_min":0,"x_max":0,"o":"m 814 777 b 612 601 703 885 680 564 b 632 762 573 622 640 711 b 520 810 623 813 588 850 b 455 673 472 781 500 680 b 380 866 410 666 413 828 b 198 825 348 904 253 929 b 278 589 143 722 273 667 b 175 509 282 538 250 527 b 116 340 100 490 80 372 b 259 325 173 290 240 373 b 205 133 277 277 165 270 b 549 46 245 -5 437 -5 b 707 363 660 97 769 264 b 492 415 645 462 548 434 b 430 200 367 375 327 249 b 564 263 482 176 530 290 b 534 176 594 239 584 223 b 301 134 489 134 376 68 b 331 316 226 200 284 284 b 335 452 377 349 384 429 b 171 388 286 475 205 367 b 206 472 137 410 158 463 b 327 615 254 480 318 543 b 281 777 335 687 256 750 b 376 725 307 804 369 767 b 441 598 383 683 362 602 b 563 762 520 593 522 779 b 498 596 604 745 536 666 b 585 454 459 527 529 472 b 802 509 642 435 710 434 b 814 777 893 584 898 697 z "},"H":{"ha":1258,"x_min":0,"x_max":0,"o":"m 1154 712 b 857 692 1095 940 908 678 b 826 969 804 707 970 938 b 572 421 683 1000 539 676 b 578 380 574 407 576 393 b 539 373 565 378 552 375 b 516 537 544 448 540 515 b 431 509 477 572 462 486 b 578 794 405 527 660 712 b 269 655 496 877 422 704 b 189 421 115 606 18 421 b 531 753 359 421 486 799 b 387 443 576 708 303 511 b 488 489 423 413 457 520 b 493 363 500 477 501 424 b 232 112 357 329 233 262 b 519 196 230 -136 491 17 b 537 340 525 238 532 290 b 586 340 552 341 568 341 b 828 -9 629 130 728 -9 b 1012 120 941 -9 1012 11 b 880 229 1012 228 933 229 b 622 338 834 229 671 183 b 699 327 646 335 672 332 b 948 477 1150 245 1069 477 b 798 509 827 477 797 471 b 1154 713 800 596 1208 508 z m 392 155 b 488 335 325 155 305 303 b 392 155 473 247 439 155 z m 847 425 b 612 385 847 401 738 401 b 609 440 610 401 609 420 b 822 840 609 715 765 840 b 779 641 880 840 779 700 b 847 594 779 581 818 589 b 927 602 904 602 927 639 b 701 489 927 565 701 581 b 847 425 701 397 847 483 z "},"I":{"ha":1228,"x_min":0,"x_max":0,"o":"m 993 598 b 646 389 911 598 772 490 b 638 534 643 443 640 491 b 671 528 649 530 660 528 b 968 811 797 528 968 669 b 701 909 968 953 782 989 b 599 594 635 843 607 798 b 343 794 516 676 415 866 b 375 579 252 704 422 626 b 99 528 327 531 99 706 b 419 404 99 350 357 466 b 273 151 481 342 127 296 b 594 323 356 67 464 206 b 413 36 580 71 514 36 b 245 -113 299 36 229 17 b 654 144 260 -236 654 -271 b 647 368 654 226 651 301 b 926 442 732 434 825 478 b 993 598 1212 341 1158 598 z m 748 752 b 659 559 871 730 748 559 b 637 566 652 559 644 562 b 748 752 633 703 649 769 z m 378 223 b 527 445 319 282 587 325 b 308 480 467 566 308 411 b 489 549 308 550 451 449 b 386 721 527 648 331 666 b 598 554 430 764 505 615 b 597 430 597 517 597 476 b 595 348 597 400 596 373 b 378 223 491 265 403 198 z "},"J":{"ha":1069,"x_min":0,"x_max":0,"o":"m 99 751 b 368 617 99 647 213 617 b 749 771 523 617 749 910 b 515 532 749 631 515 672 b 785 466 515 391 808 566 b 625 431 762 371 665 470 b 590 116 586 391 694 116 b 532 403 486 116 627 308 b 338 317 437 498 338 407 b 417 238 338 226 382 232 b 490 389 498 253 425 389 b 445 102 555 389 445 211 b 592 -23 445 -6 513 -23 b 730 175 712 -23 730 83 b 663 405 730 268 641 388 b 899 409 684 422 867 269 b 777 555 932 549 848 568 b 606 521 706 541 590 466 b 954 900 622 576 1062 676 b 555 779 846 1125 663 781 b 99 751 405 775 99 1054 z "},"K":{"ha":1278,"x_min":0,"x_max":0,"o":"m 926 -56 b 1174 194 1099 -34 1174 58 b 967 349 1174 330 1060 357 b 578 182 877 341 627 125 b 1180 791 529 239 1180 498 b 621 604 1180 1084 753 848 b 224 27 543 461 282 -31 b 494 630 166 85 604 520 b 193 384 384 740 232 345 b 458 718 154 424 293 632 b 397 931 623 805 498 931 b 99 500 297 931 99 652 b 219 333 99 349 156 330 b 407 524 303 337 371 560 b 211 -1 444 487 127 83 b 910 624 294 -85 826 709 b 555 156 995 540 476 235 b 993 217 633 78 931 319 b 787 25 1042 137 759 206 b 926 -56 796 -39 843 -67 z "},"L":{"ha":1061,"x_min":0,"x_max":0,"o":"m 727 239 b 505 209 622 197 557 196 b 613 364 535 253 570 304 b 647 417 625 382 637 399 b 872 442 731 388 832 404 b 786 649 933 499 888 599 b 754 660 776 653 766 657 b 678 961 798 827 772 960 b 515 660 577 962 519 801 b 322 595 439 647 367 624 b 383 393 219 530 290 397 b 534 518 435 391 475 456 b 544 497 537 510 540 503 b 612 432 560 468 585 447 b 463 223 571 355 518 281 b 247 271 402 246 349 280 b 226 4 41 251 64 4 b 468 157 335 4 388 48 b 756 -8 572 86 692 -8 b 963 171 860 -8 954 93 b 727 239 972 261 843 285 z m 697 438 b 665 447 686 441 675 444 b 742 620 698 506 724 564 b 697 438 840 601 926 391 z m 652 837 b 700 669 702 837 720 771 b 557 666 657 674 607 672 b 652 837 570 756 618 837 z m 566 548 b 687 615 599 577 638 603 b 658 529 680 588 670 559 b 630 465 650 508 640 486 b 566 548 597 486 577 515 z m 320 110 b 312 236 200 53 220 236 b 425 185 339 236 379 215 b 320 110 390 152 354 126 z "},"M":{"ha":1519,"x_min":0,"x_max":0,"o":"m 1236 334 b 1030 142 1132 290 1081 97 b 1419 733 978 186 1399 579 b 1290 866 1431 830 1370 877 b 942 395 1133 845 1078 585 b 753 197 872 297 843 204 b 1103 825 488 177 1117 640 b 919 894 1089 1010 977 938 b 693 506 861 850 731 509 b 782 785 655 503 788 703 b 654 907 775 867 727 913 b 544 798 580 902 540 851 b 560 672 548 745 602 675 b 381 901 518 669 497 875 b 226 796 290 921 223 881 b 477 556 231 667 473 605 b 327 554 481 507 385 558 b 251 472 269 549 247 524 b 377 394 252 449 314 403 b 542 373 456 383 540 407 b 343 136 547 311 421 142 b 409 267 266 131 415 193 b 312 367 404 340 421 375 b 99 113 203 358 89 256 b 319 -11 110 -29 232 -17 b 616 370 405 -4 626 239 b 457 434 606 501 531 439 b 401 465 384 428 396 457 b 542 525 431 508 547 465 b 486 646 538 574 453 608 b 601 570 519 684 563 567 b 674 734 639 573 620 730 b 642 502 727 738 638 560 b 723 470 647 444 699 452 b 951 740 782 513 866 734 b 700 383 1035 747 772 467 b 570 120 629 299 562 234 b 740 15 579 7 704 11 b 980 384 884 30 910 263 b 1205 656 1050 505 1168 678 b 960 89 1286 609 948 247 b 1168 -25 972 -69 1139 -27 b 1409 238 1196 -22 1413 26 b 1236 334 1408 351 1339 377 z "},"N":{"ha":1415,"x_min":0,"x_max":0,"o":"m 99 299 b 402 12 99 190 232 12 b 578 179 571 12 578 143 b 453 394 578 267 422 363 b 578 299 484 425 529 299 b 649 364 627 299 649 317 b 355 779 649 486 296 720 b 690 429 414 838 583 622 b 881 -6 779 267 750 -6 b 991 168 1013 -6 991 119 b 848 530 991 315 819 501 b 1007 379 877 559 949 395 b 1102 441 1089 356 1102 412 b 902 711 1102 551 847 656 b 1149 585 956 765 1046 585 b 1316 801 1252 585 1316 707 b 1151 959 1316 895 1229 959 b 1042 855 1073 959 1042 899 b 1098 734 1042 810 1132 769 b 859 843 1063 700 942 843 b 783 785 777 843 783 810 b 1000 460 783 722 1031 491 b 812 603 968 429 884 590 b 761 524 771 610 745 584 b 884 172 779 454 973 172 b 716 477 794 172 777 343 b 362 926 656 610 469 926 b 224 781 255 926 224 843 b 592 386 224 651 636 431 b 435 451 547 342 487 451 b 390 343 384 451 354 401 b 464 134 416 302 537 207 b 328 293 392 62 328 226 b 206 429 328 359 273 429 b 99 299 139 429 99 384 z "},"O":{"ha":1440,"x_min":0,"x_max":0,"o":"m 1147 417 b 915 493 1031 443 915 448 b 1176 465 915 538 1087 465 b 1334 631 1265 465 1334 544 b 1071 785 1334 718 1198 785 b 752 634 944 785 837 634 b 467 832 667 634 659 832 b 201 631 275 832 201 752 b 333 465 201 631 199 465 b 572 538 467 465 545 589 b 99 112 598 486 99 357 b 304 -31 99 -22 206 -53 b 643 319 467 5 607 355 b 578 143 679 283 600 213 b 658 16 560 85 598 16 b 757 92 719 16 701 92 b 835 16 812 92 790 29 b 919 103 871 5 937 38 b 879 250 903 163 815 210 b 1098 7 924 277 944 18 b 1341 196 1180 1 1341 11 b 1147 417 1341 317 1236 397 z m 902 355 b 783 286 824 395 783 344 b 828 121 783 228 868 161 b 741 196 788 80 788 196 b 636 136 694 196 690 136 b 709 324 583 136 700 278 b 623 417 720 375 696 408 b 270 154 499 433 373 51 b 638 547 167 257 632 426 b 525 640 643 625 609 651 b 324 631 440 629 324 584 b 438 721 324 678 348 709 b 742 609 527 732 683 616 b 902 669 801 602 806 631 b 1243 614 998 707 1243 687 b 1015 616 1243 540 1172 570 b 828 540 859 663 837 590 b 875 451 823 512 829 481 b 1212 197 944 406 1245 318 b 902 355 1161 10 980 315 z "},"P":{"ha":1072,"x_min":0,"x_max":0,"o":"m 594 598 b 891 908 594 690 1061 739 b 423 645 750 1049 550 758 b 220 875 385 769 320 875 b 280 524 -19 875 146 524 b 382 565 309 524 344 540 b 432 282 432 449 468 311 b 195 415 348 214 320 534 b 354 112 44 270 394 179 b 117 145 323 61 144 331 b 246 7 117 145 95 7 b 445 76 398 7 445 3 b 249 317 445 150 201 269 b 447 241 297 365 377 200 b 434 604 475 258 476 440 b 722 821 557 703 689 854 b 519 587 769 773 519 681 b 804 441 519 493 804 536 b 516 471 804 346 589 544 b 666 128 444 399 546 137 b 786 237 753 121 803 170 b 557 415 757 355 498 357 b 965 395 615 474 884 154 b 594 598 1045 636 594 507 z m 356 603 b 260 734 246 585 202 703 b 364 605 283 747 326 686 b 356 603 361 604 358 603 z "},"Q":{"ha":1278,"x_min":0,"x_max":0,"o":"m 1012 293 b 1119 355 1020 345 1104 282 b 964 482 1135 431 1015 460 b 936 492 955 486 945 489 b 992 655 969 548 992 610 b 768 874 992 810 868 874 b 102 283 457 874 135 571 b 610 74 60 -89 403 -44 b 639 38 619 61 629 49 b 761 -36 706 -35 740 -49 b 843 97 849 17 793 80 b 1161 55 909 120 1074 -98 b 1012 293 1248 209 999 216 z m 601 186 b 572 302 583 231 564 277 b 696 264 596 378 720 359 b 601 186 688 234 649 207 z m 1021 133 b 816 196 967 80 862 196 b 721 40 769 196 794 40 b 647 97 695 40 670 63 b 759 234 714 141 759 192 b 581 376 759 401 637 415 b 559 169 519 332 524 266 b 435 145 512 154 464 145 b 281 326 366 145 276 162 b 798 773 286 520 620 778 b 952 658 860 772 949 769 b 909 500 953 605 935 547 b 736 391 778 530 689 461 b 919 464 783 321 861 379 b 1050 380 981 445 1050 413 b 917 298 1050 329 936 417 b 1021 133 904 217 1074 187 z m 891 472 b 798 410 864 435 830 410 b 836 481 722 410 791 481 b 891 472 847 481 867 478 z "},"R":{"ha":1119,"x_min":0,"x_max":0,"o":"m 465 0 b 565 139 560 0 565 30 b 253 778 565 249 204 729 b 466 547 302 827 400 547 b 780 743 531 547 708 829 b 578 468 853 657 531 536 b 831 438 626 400 831 518 b 505 379 831 358 505 480 b 855 25 505 279 779 36 b 1020 125 938 13 1006 55 b 881 282 1033 194 971 282 b 591 358 790 282 546 313 b 957 445 637 404 970 267 b 628 484 942 636 678 434 b 930 748 578 535 917 627 b 780 939 937 824 938 939 b 459 610 589 939 514 610 b 146 930 403 610 404 1058 b 383 277 -56 829 459 539 b 465 0 322 67 374 0 z "},"S":{"ha":1535,"x_min":0,"x_max":0,"o":"m 1116 828 b 890 735 1011 828 997 716 b 402 868 783 753 538 912 b 204 569 267 823 204 686 b 433 474 204 453 370 468 b 727 576 568 485 666 646 b 573 294 782 513 489 385 b 1009 338 657 203 892 266 b 1284 322 1125 411 1284 418 b 1092 103 1284 226 1193 91 b 1076 271 980 116 1200 212 b 533 94 954 328 675 125 b 309 178 408 66 302 122 b 496 355 316 233 500 231 b 181 392 491 478 256 464 b 202 33 106 320 32 136 b 723 121 372 -70 626 75 b 1009 222 828 170 995 266 b 976 24 1023 178 887 87 b 1435 336 1065 -39 1461 54 b 838 352 1410 618 953 401 b 827 560 724 303 827 478 b 622 660 827 641 764 686 b 423 709 479 634 377 637 b 953 616 470 781 720 765 b 1275 665 1084 532 1258 581 b 1116 828 1287 730 1162 828 z "},"T":{"ha":1492,"x_min":0,"x_max":0,"o":"m 675 -1 b 889 164 770 -22 889 45 b 903 789 889 283 845 789 b 1006 530 961 789 917 530 b 1134 719 1094 530 1076 719 b 1120 474 1192 719 1113 544 b 1281 346 1127 404 1191 318 b 1390 612 1372 374 1404 507 b 1097 917 1376 717 1243 940 b 1017 684 950 894 1083 693 b 896 873 952 675 987 894 b 842 770 805 852 898 777 b 674 861 786 763 765 919 b 532 537 584 803 602 537 b 395 798 462 537 574 798 b 99 523 215 798 99 637 b 257 408 99 409 170 374 b 409 619 387 457 346 619 b 514 408 472 619 404 408 b 705 816 623 408 631 816 b 798 516 778 816 866 712 b 675 -1 730 320 443 53 z "},"U":{"ha":1121,"x_min":0,"x_max":0,"o":"m 220 547 b 439 745 315 547 391 793 b 115 141 487 697 124 267 b 266 -1 108 46 206 -1 b 467 260 392 -1 432 295 b 495 31 502 225 367 31 b 796 701 623 31 716 701 b 665 164 875 701 665 272 b 793 -1 665 57 679 -1 b 1022 232 908 -1 1022 125 b 933 375 1022 339 996 375 b 793 192 870 375 793 296 b 719 143 793 88 728 74 b 959 731 709 213 928 647 b 821 915 1001 844 945 915 b 651 484 698 915 670 556 b 544 192 633 412 581 192 b 530 391 507 192 633 339 b 208 190 427 442 269 159 b 567 738 148 221 567 610 b 409 890 567 866 521 890 b 99 687 297 890 99 792 b 220 547 99 582 145 547 z "},"V":{"ha":1181,"x_min":0,"x_max":0,"o":"m 1029 878 b 691 855 893 996 733 958 b 755 537 649 752 795 540 b 626 677 715 534 708 713 b 554 582 598 664 574 628 b 478 693 530 648 504 695 b 380 499 419 689 421 481 b 425 856 306 530 438 770 b 99 767 402 1003 80 1026 b 255 594 106 683 158 587 b 299 804 352 602 369 744 b 381 801 229 864 375 882 b 328 423 388 721 246 493 b 489 549 410 352 435 596 b 523 501 499 541 511 524 b 472 321 501 430 484 358 b 552 -11 428 183 373 -25 b 638 298 691 -1 676 161 b 573 528 621 361 598 450 b 637 603 596 572 619 602 b 821 344 716 609 727 288 b 773 794 957 425 647 737 b 891 623 839 824 810 660 b 1029 878 1003 571 1166 761 z m 541 126 b 543 461 451 106 486 313 b 541 126 597 342 644 148 z "},"W":{"ha":1460,"x_min":0,"x_max":0,"o":"m 134 680 b 252 535 134 607 169 535 b 432 747 336 535 380 799 b 236 365 484 695 332 446 b 99 131 141 283 99 197 b 222 -13 99 66 155 -5 b 692 690 425 -36 637 693 b 490 171 816 684 503 259 b 609 -13 472 38 511 -13 b 845 393 707 -13 803 393 b 786 127 887 393 786 178 b 875 -13 786 76 817 -22 b 968 255 1031 10 912 215 b 1232 -13 1029 298 1048 -13 b 1285 260 1416 -13 1374 171 b 984 559 1197 348 1038 435 b 1076 766 926 694 1032 809 b 1027 614 1119 723 1027 684 b 1159 479 1027 544 1096 479 b 1302 623 1222 479 1302 514 b 1055 847 1302 733 1222 847 b 936 554 887 847 913 606 b 1190 147 999 407 1232 188 b 959 327 1110 71 1046 366 b 896 188 887 295 953 171 b 875 460 840 204 981 424 b 644 136 779 493 730 114 b 798 784 579 153 1022 740 b 502 400 605 823 598 595 b 248 162 440 273 362 106 b 503 708 162 204 503 594 b 336 847 503 823 427 849 b 134 680 246 846 134 803 z "},"X":{"ha":1483,"x_min":0,"x_max":0,"o":"m 1265 601 b 692 435 1168 619 918 543 b 1133 636 928 758 1032 711 b 1242 930 1261 540 1564 930 b 757 663 1040 930 877 806 b 635 765 733 711 719 766 b 271 574 510 764 330 513 b 491 807 213 635 474 730 b 299 977 507 884 444 1012 b 218 439 115 933 -1 439 b 619 716 437 439 526 684 b 731 632 672 735 709 681 b 565 370 658 539 602 443 b 279 32 367 259 221 129 b 643 130 363 -108 537 32 b 821 285 696 180 758 234 b 1018 -28 847 175 904 -7 b 1279 195 1144 -50 1212 78 b 1265 601 1362 339 1473 564 z m 1063 287 b 946 381 997 282 963 334 b 1205 466 1065 464 1168 514 b 1063 287 1258 396 1182 296 z "},"Y":{"ha":1394,"x_min":0,"x_max":0,"o":"m 201 604 b 335 480 194 541 254 469 b 555 873 532 505 412 845 b 596 710 655 892 649 799 b 502 436 543 622 426 512 b 665 523 578 360 623 564 b 736 320 707 481 609 320 b 946 571 863 320 888 571 b 883 173 1005 571 956 193 b 685 282 809 152 771 289 b 384 92 599 274 419 58 b 523 345 350 126 523 254 b 188 360 523 436 292 482 b 127 137 109 267 67 197 b 354 225 187 77 314 103 b 461 328 395 346 449 350 b 344 13 496 263 250 77 b 613 135 457 -63 532 135 b 804 48 694 135 720 48 b 972 634 888 48 1082 295 b 1068 652 875 934 1068 784 b 1258 591 1068 520 1195 528 b 1235 873 1322 655 1299 809 b 908 906 1172 936 1011 1008 b 921 619 805 803 964 660 b 845 604 878 578 885 677 b 738 485 804 530 751 415 b 699 654 726 556 749 629 b 555 533 649 680 572 507 b 672 870 538 558 727 767 b 395 901 626 958 502 980 b 201 604 303 834 212 721 z "},"Z":{"ha":1413,"x_min":0,"x_max":0,"o":"m 967 512 b 843 373 860 512 819 434 b 1139 132 876 283 1188 243 b 772 286 1104 50 894 364 b 739 114 673 223 825 149 b 603 196 709 102 663 145 b 881 619 702 327 799 496 b 1038 545 935 577 990 545 b 1266 730 1188 545 1266 603 b 995 824 1266 857 1108 937 b 883 669 967 796 928 739 b 526 878 761 778 614 1015 b 645 644 440 747 718 717 b 315 901 572 571 476 893 b 99 639 175 907 89 771 b 214 527 99 639 99 527 b 429 700 328 527 340 761 b 718 593 504 648 638 438 b 622 799 789 730 569 746 b 861 634 656 833 755 720 b 572 222 775 501 671 332 b 318 332 502 278 416 335 b 343 -5 112 327 79 -5 b 555 136 411 -5 483 52 b 788 13 624 58 680 -15 b 877 187 948 55 819 177 b 1114 12 942 198 952 12 b 1314 213 1276 12 1314 94 b 967 512 1314 332 1073 512 z m 1053 773 b 997 621 1122 728 1096 665 b 903 652 970 609 938 624 b 1053 773 965 742 1018 797 z m 399 106 b 422 253 214 106 343 299 b 523 172 462 231 494 202 b 399 106 478 131 436 106 z "},"[":{"ha":471,"x_min":0,"x_max":0,"o":"m 223 135 b 163 435 149 240 164 396 b 223 642 160 514 135 543 b 347 846 311 740 424 717 b 107 613 271 976 54 832 b 124 539 114 585 119 561 b 122 348 138 476 138 411 b 107 164 114 317 107 262 b 347 -70 107 -62 271 -199 b 223 135 424 60 299 27 z "},"]":{"ha":471,"x_min":0,"x_max":0,"o":"m 364 613 b 124 846 418 832 200 976 b 248 642 48 717 160 740 b 309 435 337 543 312 514 b 248 135 307 396 322 240 b 124 -70 172 27 48 60 b 364 164 200 -199 364 -62 b 349 348 364 262 357 317 b 347 539 333 411 334 476 b 364 613 352 561 358 585 z "},"_":{"ha":867,"x_min":0,"x_max":0,"o":"m 453 18 b 131 28 370 9 226 19 b 109 6 103 30 87 14 b 759 -47 396 -110 708 -145 b 453 18 815 58 584 31 z "},"a":{"ha":1408,"x_min":0,"x_max":0,"o":"m 1194 345 b 918 279 1102 326 1001 299 b 825 347 888 301 857 324 b 1228 560 969 410 1250 454 b 888 568 1177 806 913 485 b 1027 873 863 651 1095 750 b 576 501 952 1005 759 1000 b 377 566 510 534 442 558 b 425 372 93 604 194 362 b 510 373 455 373 483 374 b 494 354 505 366 499 360 b 215 257 442 299 349 257 b 215 9 -5 257 -11 9 b 561 370 340 9 467 193 b 716 342 621 365 671 356 b 633 235 658 308 621 271 b 839 130 677 105 738 108 b 955 183 871 137 912 158 b 1221 9 1038 87 1084 -6 b 1194 345 1502 39 1419 391 z m 616 481 b 704 687 662 580 694 662 b 861 788 732 761 783 852 b 753 472 939 724 674 594 b 1052 531 820 368 912 560 b 782 378 1140 513 935 452 b 616 481 728 414 673 450 z m 749 296 b 775 320 755 305 764 313 b 866 268 810 305 840 287 b 749 296 773 249 717 247 z m 1123 144 b 1008 213 1093 156 1053 181 b 1224 298 1088 259 1170 305 b 1123 144 1323 284 1263 89 z "},"b":{"ha":1269,"x_min":0,"x_max":0,"o":"m 1218 375 b 874 539 1129 565 864 477 b 1140 807 883 601 1198 665 b 690 682 1019 1105 749 620 b 762 947 631 744 906 881 b 430 726 673 988 530 898 b 321 862 399 772 363 818 b 177 720 35 1159 -132 681 b 386 636 244 728 320 694 b 317 317 347 544 321 436 b 575 73 304 -103 524 -29 b 448 699 617 157 611 437 b 569 795 486 759 536 809 b 594 568 614 777 528 606 b 879 724 687 515 811 767 b 771 498 947 680 717 612 b 1099 387 832 371 1116 534 b 872 347 1082 239 945 321 b 819 77 798 374 480 300 b 1218 375 1157 -147 1291 218 z m 498 191 b 407 616 373 -4 301 341 b 498 191 517 506 587 330 z "},"c":{"ha":1115,"x_min":0,"x_max":0,"o":"m 227 717 b 476 652 259 786 416 617 b 514 799 537 686 462 799 b 585 675 567 799 518 707 b 755 720 614 662 688 715 b 964 514 853 728 799 491 b 1003 838 1111 535 1188 734 b 612 752 817 942 664 727 b 527 967 575 770 692 955 b 415 745 335 980 466 779 b 58 826 351 702 234 1098 b 307 531 -78 614 288 598 b 145 225 327 464 82 387 b 1090 200 224 23 1146 -181 b 421 140 1044 507 639 102 b 250 377 215 176 90 262 b 390 543 356 453 389 498 b 227 717 391 622 194 649 z "},"d":{"ha":1250,"x_min":0,"x_max":0,"o":"m 51 67 b 267 -14 84 -13 168 -12 b 645 195 559 -20 556 228 b 991 -18 707 172 796 -45 b 1209 283 1071 -6 1195 70 b 517 854 1243 807 692 854 b 369 714 342 854 460 714 b 64 791 279 714 64 905 b 226 584 64 677 226 627 b 55 513 226 541 55 578 b 312 378 55 448 157 368 b 686 301 468 387 529 364 b 875 411 843 238 861 332 b 597 504 888 490 719 568 b 200 488 475 439 230 443 b 340 568 171 533 302 523 b 216 708 377 614 188 661 b 426 627 243 755 373 633 b 497 692 479 622 538 635 b 861 740 456 749 548 918 b 922 195 1174 561 1054 260 b 587 226 790 130 745 264 b 241 287 430 187 361 240 b 73 214 168 316 108 261 b 51 67 41 172 31 116 z "},"e":{"ha":892,"x_min":0,"x_max":0,"o":"m 896 747 b 717 879 896 823 824 879 b 72 641 208 879 68 743 b 216 563 76 539 216 600 b 35 382 216 527 35 494 b 233 333 35 269 214 399 b 99 103 253 267 113 275 b 591 61 91 -3 346 -59 b 839 355 724 125 839 233 b 562 323 839 476 646 473 b 193 152 440 105 191 45 b 436 455 195 308 440 316 b 142 438 433 551 142 376 b 346 604 142 500 346 532 b 161 681 346 676 161 615 b 346 787 161 747 233 796 b 721 630 459 779 647 640 b 896 747 796 619 896 632 z "},"f":{"ha":993,"x_min":0,"x_max":0,"o":"m 781 556 b 975 763 872 526 975 652 b 781 925 975 874 898 925 b 505 762 709 925 603 833 b 487 822 502 781 496 802 b 75 803 387 1050 75 959 b 363 609 75 648 197 543 b 452 658 392 621 422 638 b 410 557 445 627 431 593 b 363 558 395 558 379 558 b 75 459 142 558 75 516 b 260 372 75 428 173 407 b 372 -7 128 179 212 -7 b 468 328 553 -7 576 219 b 340 401 432 363 386 385 b 396 475 358 425 377 450 b 593 281 467 441 540 380 b 883 247 738 13 883 138 b 453 555 883 347 790 527 b 508 698 482 600 503 647 b 757 812 637 795 757 912 b 781 556 757 744 518 643 z m 395 247 b 261 264 395 115 197 79 b 305 352 271 294 287 323 b 395 247 356 326 395 293 z m 325 449 b 293 415 313 438 303 426 b 152 477 214 436 146 445 b 362 489 158 510 254 529 b 325 449 350 476 338 463 z m 340 680 b 350 863 225 680 248 863 b 458 729 403 863 453 810 b 340 680 414 700 373 680 z "},"g":{"ha":854,"x_min":0,"x_max":0,"o":"m 755 756 b 553 580 643 864 621 543 b 573 741 514 601 581 690 b 461 789 564 792 529 829 b 396 652 412 760 441 659 b 321 845 351 645 354 807 b 139 804 289 884 194 908 b 219 568 84 701 213 646 b 116 488 223 517 191 506 b 57 320 41 469 21 351 b 199 304 114 269 181 352 b 146 112 218 256 106 249 b 489 26 185 -25 378 -25 b 648 342 601 76 710 243 b 433 395 585 441 489 413 b 371 180 308 354 267 228 b 505 242 423 155 471 269 b 475 156 534 218 525 202 b 242 113 430 113 317 47 b 272 296 167 180 225 263 b 276 431 318 328 325 409 b 112 368 226 454 146 346 b 147 451 78 389 99 443 b 267 594 195 460 259 522 b 222 756 276 666 197 730 b 317 704 248 783 310 747 b 382 577 324 662 303 581 b 503 741 461 573 462 758 b 438 575 544 724 477 645 b 526 433 400 506 469 451 b 742 488 583 414 650 413 b 755 756 834 563 839 676 z "},"h":{"ha":1092,"x_min":0,"x_max":0,"o":"m 1072 712 b 774 692 1012 940 826 678 b 743 969 721 707 887 938 b 489 421 600 1000 456 676 b 495 380 491 407 493 393 b 457 373 483 378 470 375 b 433 537 461 448 458 515 b 348 509 394 572 379 486 b 495 794 322 527 577 712 b 186 655 413 877 340 704 b 106 421 32 606 -64 421 b 448 753 276 421 403 799 b 304 443 494 708 221 511 b 405 489 340 413 374 520 b 410 363 417 477 418 424 b 149 112 274 329 150 262 b 436 196 147 -136 408 17 b 454 340 442 238 450 290 b 503 340 469 341 486 341 b 746 -9 547 130 645 -9 b 929 120 858 -9 929 11 b 797 229 929 228 850 229 b 540 338 752 229 588 183 b 616 327 563 335 589 332 b 865 477 1067 245 986 477 b 715 509 744 477 714 471 b 1072 713 717 596 1125 508 z m 309 155 b 406 335 242 155 222 303 b 309 155 390 247 356 155 z m 764 425 b 530 385 764 401 656 401 b 526 440 527 401 526 420 b 739 840 526 715 682 840 b 696 641 797 840 696 700 b 764 594 696 581 736 589 b 844 602 821 602 844 639 b 618 489 844 565 618 581 b 764 425 618 397 764 483 z "},"i":{"ha":1113,"x_min":0,"x_max":0,"o":"m 925 637 b 578 428 843 637 704 529 b 570 573 575 482 572 530 b 603 567 581 569 592 567 b 900 850 729 567 900 708 b 634 947 900 992 715 1028 b 532 633 568 882 540 837 b 275 833 448 714 347 905 b 307 618 185 743 355 665 b 31 567 259 570 31 744 b 351 443 31 389 290 505 b 205 189 413 381 60 335 b 526 362 289 106 396 245 b 345 75 513 110 446 75 b 177 -74 231 75 161 56 b 586 183 192 -197 586 -232 b 579 406 586 265 583 340 b 859 481 664 473 758 517 b 925 637 1144 380 1090 637 z m 680 791 b 592 598 804 769 680 598 b 569 605 584 598 577 601 b 680 791 565 742 582 808 z m 310 262 b 459 484 252 321 520 364 b 240 519 399 605 240 449 b 421 588 240 589 383 488 b 318 760 459 687 264 705 b 530 593 362 803 438 654 b 529 469 529 556 529 515 b 528 387 529 439 528 412 b 310 262 423 303 336 237 z "},"j":{"ha":931,"x_min":0,"x_max":0,"o":"m 32 676 b 302 542 32 572 146 542 b 683 696 457 542 683 835 b 449 457 683 556 449 597 b 718 391 449 316 742 491 b 559 356 696 296 599 395 b 524 41 520 316 628 41 b 466 328 420 41 561 233 b 272 242 371 423 272 332 b 351 163 272 151 316 157 b 424 314 432 178 359 314 b 378 27 489 314 378 136 b 526 -98 378 -81 447 -98 b 663 100 646 -98 663 8 b 597 330 663 193 575 313 b 833 334 618 347 801 194 b 711 480 866 474 781 493 b 540 446 640 466 524 391 b 888 825 555 501 996 601 b 488 704 779 1050 597 706 b 32 676 339 700 32 979 z "},"k":{"ha":1174,"x_min":0,"x_max":0,"o":"m 861 -75 b 1110 174 1034 -54 1110 39 b 903 329 1110 310 995 337 b 513 162 813 322 563 105 b 1115 772 464 219 1115 479 b 556 585 1115 1065 688 829 b 160 7 479 442 218 -51 b 429 611 102 65 539 500 b 128 365 319 721 167 326 b 394 699 89 404 228 613 b 333 911 559 785 433 911 b 34 481 232 911 34 632 b 154 314 34 329 91 311 b 342 504 238 318 306 541 b 146 -20 379 468 62 63 b 846 605 229 -104 761 689 b 490 137 930 520 411 215 b 928 198 568 58 866 299 b 722 5 977 117 694 186 b 861 -75 732 -59 778 -86 z "},"l":{"ha":917,"x_min":0,"x_max":0,"o":"m 651 219 b 429 190 546 178 482 177 b 537 345 459 233 494 285 b 571 397 549 362 561 380 b 796 423 655 369 756 385 b 710 629 857 480 812 580 b 678 641 700 634 690 637 b 602 942 722 808 696 940 b 439 641 501 943 443 781 b 246 576 363 628 291 605 b 307 374 143 510 215 377 b 458 498 359 371 399 437 b 468 478 461 491 464 484 b 537 412 485 449 509 428 b 387 203 495 335 442 262 b 171 251 326 227 273 261 b 150 -16 -35 231 -12 -16 b 392 138 259 -16 312 29 b 680 -27 496 66 616 -27 b 887 151 785 -27 878 73 b 651 219 897 242 767 265 z m 621 419 b 590 428 610 421 599 424 b 666 601 623 486 648 545 b 621 419 764 582 850 371 z m 576 818 b 624 650 627 818 644 752 b 481 647 581 654 531 653 b 576 818 494 736 542 818 z m 490 529 b 611 596 523 558 562 583 b 582 510 604 568 594 540 b 554 446 574 488 564 467 b 490 529 521 467 501 496 z m 244 90 b 236 216 124 33 144 216 b 349 166 263 216 303 195 b 244 90 314 133 278 106 z "},"m":{"ha":1510,"x_min":0,"x_max":0,"o":"m 1204 335 b 997 143 1100 292 1049 99 b 1386 734 945 187 1366 580 b 1257 867 1398 831 1337 878 b 909 396 1100 847 1045 586 b 720 198 839 298 810 205 b 1070 826 455 178 1084 642 b 886 895 1056 1011 944 940 b 660 507 828 851 698 510 b 749 786 623 504 755 704 b 621 909 743 869 694 914 b 511 800 548 903 507 853 b 527 673 515 746 569 676 b 349 902 485 670 465 877 b 193 798 257 922 190 882 b 444 557 199 668 440 606 b 294 555 448 508 352 559 b 218 474 237 551 214 525 b 345 395 220 450 281 405 b 509 374 423 384 507 409 b 311 138 514 312 388 144 b 377 268 233 132 382 195 b 280 368 371 342 389 376 b 66 115 171 360 56 257 b 286 -9 77 -27 199 -16 b 584 371 373 -3 594 240 b 424 435 574 502 498 441 b 368 467 351 429 363 459 b 509 526 399 509 514 466 b 453 647 505 575 420 609 b 568 571 486 686 531 568 b 641 736 606 574 587 732 b 609 503 694 740 605 562 b 690 471 614 445 667 454 b 918 742 749 514 833 735 b 668 384 1002 748 739 468 b 538 122 596 301 529 235 b 707 16 546 8 671 12 b 947 385 851 31 877 264 b 1172 657 1017 507 1135 679 b 927 91 1253 611 915 249 b 1135 -23 939 -67 1106 -25 b 1376 239 1164 -21 1380 27 b 1204 335 1375 353 1306 378 z "},"n":{"ha":1222,"x_min":0,"x_max":0,"o":"m 90 280 b 393 -8 90 170 224 -8 b 570 159 563 -8 570 124 b 445 375 570 248 413 343 b 570 280 476 406 520 280 b 641 344 619 280 641 297 b 346 759 641 466 287 700 b 681 409 406 818 574 602 b 873 -26 771 247 741 -26 b 982 148 1004 -26 982 99 b 839 511 982 295 810 482 b 998 359 868 540 940 375 b 1094 422 1080 337 1094 393 b 893 691 1094 532 838 637 b 1140 565 948 746 1038 565 b 1308 782 1243 565 1308 688 b 1143 940 1308 875 1221 940 b 1033 835 1065 940 1033 880 b 1089 715 1033 791 1124 749 b 851 824 1055 680 933 824 b 775 766 768 824 775 791 b 991 440 775 703 1022 472 b 804 583 960 409 875 571 b 752 504 762 590 737 564 b 875 153 770 435 964 153 b 708 457 786 153 768 323 b 353 907 648 591 460 907 b 215 762 246 907 215 824 b 583 367 215 631 627 411 b 427 431 538 322 478 431 b 382 323 375 431 346 381 b 456 115 407 282 528 187 b 320 273 383 42 320 206 b 197 409 320 340 264 409 b 90 280 130 409 90 365 z "},"o":{"ha":1304,"x_min":0,"x_max":0,"o":"m 1082 437 b 850 512 966 463 850 468 b 1111 485 850 557 1022 485 b 1269 651 1200 485 1269 564 b 1006 805 1269 738 1133 805 b 687 653 879 805 772 653 b 402 851 602 653 594 851 b 137 651 210 851 137 771 b 268 485 137 651 134 485 b 507 557 402 485 480 608 b 34 131 533 506 34 376 b 239 -12 34 -3 141 -33 b 578 338 402 24 542 374 b 513 162 614 303 535 233 b 593 35 495 104 533 35 b 692 111 654 35 636 111 b 770 35 748 111 725 49 b 855 122 806 24 872 58 b 815 269 838 182 750 229 b 1033 26 859 297 879 37 b 1276 216 1115 20 1276 30 b 1082 437 1276 336 1171 417 z m 837 374 b 719 305 759 415 719 363 b 763 140 719 247 803 180 b 676 216 723 100 723 216 b 571 155 629 216 625 155 b 644 343 518 155 635 297 b 558 437 655 395 631 428 b 205 173 434 452 308 71 b 574 566 103 276 567 446 b 460 660 578 645 545 671 b 259 651 375 649 259 604 b 373 740 259 698 284 729 b 677 628 462 751 618 635 b 837 689 736 622 741 651 b 1178 633 933 727 1178 707 b 951 636 1178 559 1107 589 b 763 560 795 683 772 609 b 810 470 758 532 764 500 b 1147 216 879 425 1180 337 b 837 374 1096 30 915 334 z "},"p":{"ha":936,"x_min":0,"x_max":0,"o":"m 525 598 b 822 908 525 690 992 739 b 354 645 681 1049 481 758 b 151 875 316 769 251 875 b 211 524 -88 875 77 524 b 313 565 240 524 275 540 b 363 282 363 449 399 311 b 126 415 279 214 251 534 b 285 112 -25 270 325 179 b 48 145 254 61 75 331 b 178 7 48 145 26 7 b 376 76 329 7 376 3 b 180 317 376 150 132 269 b 378 241 228 365 308 200 b 365 604 406 258 407 440 b 653 821 488 703 620 854 b 450 587 701 773 450 681 b 735 441 450 493 735 536 b 447 471 735 346 520 544 b 597 128 375 399 477 137 b 717 237 684 121 734 170 b 488 415 688 355 429 357 b 896 395 546 474 815 154 b 525 598 976 636 525 507 z m 287 603 b 191 734 178 585 133 703 b 295 605 214 747 257 686 b 287 603 292 604 290 603 z "},"q":{"ha":1124,"x_min":0,"x_max":0,"o":"m 947 313 b 1055 375 955 364 1039 301 b 899 501 1071 451 950 480 b 872 512 890 505 881 509 b 927 675 904 567 927 630 b 703 893 927 829 803 893 b 37 302 392 893 70 590 b 545 93 -5 -69 339 -24 b 575 57 554 81 564 69 b 696 -17 642 -16 675 -29 b 778 117 784 36 728 100 b 1097 75 844 139 1010 -79 b 947 313 1184 229 934 235 z m 536 205 b 507 322 519 250 499 296 b 631 283 531 398 655 379 b 536 205 623 253 584 226 z m 956 153 b 751 215 902 99 798 215 b 656 60 704 215 729 60 b 582 116 630 60 605 83 b 694 254 649 160 694 212 b 516 395 694 421 572 434 b 494 189 454 352 459 286 b 370 164 447 173 399 164 b 216 345 301 164 212 181 b 733 793 222 539 555 798 b 887 677 795 791 885 789 b 844 519 888 624 870 566 b 672 410 713 550 625 480 b 854 484 718 340 796 398 b 985 400 916 465 985 433 b 853 318 985 348 871 436 b 956 153 840 236 1010 206 z m 826 492 b 733 429 799 454 766 429 b 771 501 657 429 726 501 b 826 492 783 501 803 498 z "},"r":{"ha":968,"x_min":0,"x_max":0,"o":"m 379 0 b 479 139 474 0 479 30 b 168 778 479 249 119 729 b 380 547 217 827 315 547 b 695 743 445 547 622 829 b 493 468 767 657 445 536 b 745 438 540 400 745 518 b 420 379 745 358 420 480 b 769 25 420 279 693 36 b 934 125 852 13 920 55 b 795 282 948 194 886 282 b 506 358 704 282 460 313 b 871 445 551 404 884 267 b 542 484 857 636 592 434 b 844 748 492 535 831 627 b 695 939 852 824 852 939 b 373 610 503 939 429 610 b 61 930 317 610 318 1058 b 297 277 -142 829 373 539 b 379 0 237 67 288 0 z "},"s":{"ha":1367,"x_min":0,"x_max":0,"o":"m 1047 828 b 821 735 942 828 928 716 b 334 868 714 753 469 912 b 135 569 198 823 135 686 b 364 474 135 453 301 468 b 658 576 499 485 597 646 b 504 294 713 513 420 385 b 940 338 588 203 823 266 b 1215 322 1056 411 1215 418 b 1023 103 1215 226 1124 91 b 1007 271 911 116 1131 212 b 464 94 885 328 606 125 b 240 178 339 66 233 122 b 427 355 247 233 431 231 b 112 392 422 478 187 464 b 133 33 37 320 -37 136 b 654 121 303 -70 557 75 b 940 222 759 170 926 266 b 907 24 954 178 819 87 b 1366 336 996 -39 1392 54 b 770 352 1341 618 884 401 b 758 560 655 303 758 478 b 553 660 758 641 695 686 b 355 709 411 634 308 637 b 884 616 401 781 651 765 b 1206 665 1015 532 1189 581 b 1047 828 1218 730 1093 828 z "},"t":{"ha":1288,"x_min":0,"x_max":0,"o":"m 554 -41 b 769 124 650 -63 769 5 b 783 749 769 243 724 749 b 885 490 841 749 797 490 b 1013 679 974 490 955 679 b 999 434 1072 679 992 504 b 1161 306 1006 364 1071 278 b 1270 571 1251 334 1284 466 b 976 877 1256 676 1123 900 b 897 644 829 854 962 653 b 776 833 832 634 867 854 b 722 730 685 812 778 737 b 554 821 666 723 645 879 b 412 497 463 763 482 497 b 274 758 342 497 454 758 b -22 483 95 758 -22 597 b 137 367 -22 369 50 334 b 288 578 267 417 225 578 b 393 367 351 578 284 367 b 584 775 503 367 511 775 b 678 476 658 775 745 672 b 554 -41 610 280 323 12 z "},"u":{"ha":1011,"x_min":0,"x_max":0,"o":"m 172 507 b 391 705 267 507 343 753 b 67 101 439 657 76 226 b 218 -41 60 5 158 -41 b 419 220 344 -41 384 255 b 447 -9 454 185 319 -9 b 748 660 575 -9 668 660 b 617 124 827 660 617 231 b 745 -41 617 17 631 -41 b 974 192 860 -41 974 85 b 885 335 974 299 948 335 b 745 152 822 335 745 256 b 671 103 745 47 680 33 b 911 691 661 173 880 607 b 773 875 953 804 897 875 b 603 444 650 875 622 516 b 496 152 584 371 533 152 b 482 350 459 152 584 299 b 160 150 379 402 221 119 b 519 698 99 181 519 569 b 361 849 519 826 472 849 b 50 646 249 849 50 751 b 172 507 50 542 97 507 z "},"v":{"ha":1031,"x_min":0,"x_max":0,"o":"m 958 878 b 619 855 821 996 661 958 b 683 537 577 752 723 540 b 554 677 644 534 636 713 b 482 582 527 664 503 628 b 407 693 458 648 432 695 b 308 499 348 689 349 481 b 353 856 235 530 366 770 b 28 767 330 1003 8 1026 b 184 594 34 683 87 587 b 227 804 281 602 297 744 b 310 801 157 864 304 882 b 257 423 316 721 175 493 b 418 549 339 352 363 596 b 452 501 427 541 439 524 b 400 321 429 430 412 358 b 480 -11 356 183 301 -25 b 566 298 619 -1 604 161 b 501 528 549 361 526 450 b 566 603 524 572 547 602 b 750 344 644 609 655 288 b 701 794 886 425 576 737 b 819 623 767 824 738 660 b 958 878 931 571 1094 761 z m 469 126 b 472 461 379 106 414 313 b 469 126 525 342 573 148 z "},"w":{"ha":1274,"x_min":0,"x_max":0,"o":"m 59 686 b 178 540 59 613 94 540 b 358 753 262 540 305 805 b 162 370 410 700 257 452 b 24 137 66 289 24 202 b 148 -8 24 72 80 0 b 618 696 351 -31 563 698 b 416 177 742 690 428 264 b 535 -8 397 44 437 -8 b 770 398 633 -8 728 398 b 712 132 812 398 712 184 b 800 -8 712 81 743 -16 b 894 261 957 16 838 221 b 1157 -8 954 303 973 -8 b 1211 265 1341 -8 1299 177 b 910 565 1122 354 964 440 b 1001 771 851 700 958 814 b 952 620 1044 728 952 690 b 1085 484 952 550 1022 484 b 1227 629 1148 484 1227 519 b 980 853 1227 739 1148 853 b 861 559 812 853 839 612 b 1115 153 924 412 1157 193 b 884 333 1036 76 971 371 b 821 193 812 301 879 177 b 801 466 766 209 906 430 b 570 142 705 498 655 119 b 724 790 504 159 948 746 b 427 405 530 828 523 601 b 173 167 366 279 288 111 b 428 714 87 209 428 600 b 262 853 428 828 353 854 b 59 686 171 851 59 808 z "},"x":{"ha":1342,"x_min":0,"x_max":0,"o":"m 1198 601 b 624 435 1101 619 850 543 b 1065 636 860 758 964 711 b 1175 930 1193 540 1496 930 b 689 663 973 930 810 806 b 568 765 666 711 652 766 b 204 574 442 764 262 513 b 423 807 145 635 407 730 b 232 977 439 884 376 1012 b 150 439 48 933 -69 439 b 551 716 369 439 458 684 b 663 632 605 735 641 681 b 498 370 590 539 535 443 b 212 32 299 259 154 129 b 575 130 296 -108 469 32 b 753 285 629 180 691 234 b 951 -28 779 175 837 -7 b 1212 195 1077 -50 1145 78 b 1198 601 1294 339 1405 564 z m 995 287 b 879 381 929 282 895 334 b 1137 466 997 464 1101 514 b 995 287 1191 396 1114 296 z "},"y":{"ha":1261,"x_min":0,"x_max":0,"o":"m 147 604 b 281 480 141 541 201 469 b 501 873 478 505 359 845 b 543 710 602 892 596 799 b 449 436 489 622 373 512 b 611 523 525 360 569 564 b 682 320 653 481 555 320 b 893 571 809 320 834 571 b 829 173 951 571 903 193 b 631 282 756 152 718 289 b 331 92 545 274 365 58 b 469 345 297 126 469 254 b 134 360 469 436 238 482 b 73 137 55 267 14 197 b 301 225 133 77 260 103 b 407 328 341 346 395 350 b 290 13 442 263 196 77 b 559 135 403 -63 478 135 b 750 48 640 135 667 48 b 918 634 834 48 1028 295 b 1014 652 821 934 1014 784 b 1205 591 1014 520 1141 528 b 1182 873 1268 655 1246 809 b 855 906 1118 936 957 1008 b 867 619 752 803 910 660 b 791 604 824 578 832 677 b 685 485 751 530 697 415 b 646 654 672 556 695 629 b 501 533 596 680 518 507 b 619 870 484 558 673 767 b 341 901 572 958 449 980 b 147 604 250 834 158 721 z "},"z":{"ha":1371,"x_min":0,"x_max":0,"o":"m 996 472 b 872 332 890 472 849 394 b 1169 91 905 243 1217 203 b 802 246 1133 10 923 323 b 768 74 702 182 854 109 b 632 155 738 61 692 104 b 910 579 732 287 828 456 b 1067 505 964 537 1019 505 b 1295 690 1217 505 1295 563 b 1024 784 1295 817 1137 897 b 912 628 996 756 958 699 b 555 838 791 738 643 974 b 674 604 470 706 747 677 b 344 860 601 531 505 853 b 129 599 205 867 118 731 b 243 487 129 599 129 487 b 458 660 357 487 370 721 b 747 553 534 608 667 398 b 651 758 819 690 598 705 b 890 594 685 792 784 680 b 601 181 805 460 700 292 b 347 292 531 238 445 294 b 372 -46 141 287 108 -46 b 584 96 440 -46 512 12 b 818 -27 653 17 709 -55 b 906 147 977 14 848 137 b 1143 -28 971 157 981 -28 b 1344 173 1306 -28 1344 53 b 996 472 1344 292 1103 472 z m 1082 733 b 1026 581 1151 688 1125 624 b 932 611 999 569 967 583 b 1082 733 995 701 1047 757 z m 428 66 b 451 213 243 66 372 258 b 552 131 491 191 523 162 b 428 66 508 91 465 66 z "},"":{"ha":458,"x_min":0,"x_max":0,"o":""},"":{"ha":544,"x_min":0,"x_max":0,"o":"m 188 347 b 282 484 189 378 340 443 b 169 416 224 524 207 465 b 101 334 131 366 87 403 b 170 281 109 294 138 365 b 304 245 203 197 321 205 b 188 347 287 286 186 316 z m 375 319 b 373 375 357 333 356 360 b 318 416 490 478 420 570 b 250 334 280 366 236 403 b 315 289 257 296 285 360 b 327 272 318 283 322 277 b 375 319 423 163 513 214 z "},"":{"ha":0,"x_min":0,"x_max":0,"o":""},"":{"ha":464,"x_min":0,"x_max":0,"o":"m 312 1014 b 328 1128 308 1045 392 1101 b 219 1077 177 1194 262 1092 b 118 1092 176 1062 163 1176 b 150 972 46 959 204 1003 b 184 860 106 947 123 872 b 248 933 252 847 204 947 b 360 903 291 918 336 842 b 312 1014 385 964 316 983 z m 320 948 b 248 984 290 910 282 994 b 189 923 213 975 211 907 b 208 1000 137 961 215 967 b 153 1043 201 1032 135 989 b 243 1033 172 1097 217 1019 b 296 1085 269 1047 241 1128 b 276 1013 351 1041 271 1040 b 320 948 282 987 350 986 z "},"":{"ha":544,"x_min":0,"x_max":0,"o":"m 443 375 b 374 428 435 415 406 344 b 240 464 342 512 223 504 b 357 362 258 423 358 393 b 262 225 355 331 204 266 b 375 293 320 185 337 244 b 443 375 413 343 457 306 z m 294 375 b 229 420 287 413 260 349 b 217 437 226 426 222 432 b 169 390 121 546 32 495 b 171 334 187 376 188 349 b 227 293 54 231 124 139 b 294 375 265 343 308 306 z "},"":{"ha":1058,"x_min":0,"x_max":0,"o":"m 410 754 b 785 596 522 745 710 607 b 960 713 859 585 960 598 b 781 845 960 790 887 845 b 136 608 271 845 132 710 b 280 530 140 505 280 566 b 99 348 280 494 99 461 b 297 300 99 235 278 366 b 163 70 316 234 176 242 b 655 27 154 -36 410 -92 b 902 321 788 92 902 200 b 625 289 902 443 709 440 b 256 119 504 72 255 11 b 499 421 258 274 504 283 b 205 404 496 517 205 342 b 410 570 205 466 410 498 b 224 647 410 643 224 581 b 410 754 224 713 297 762 z m 308 822 b 415 949 378 838 462 895 b 286 973 369 1003 315 1056 b 302 888 257 891 351 881 b 245 974 272 892 233 955 b 301 1037 252 986 270 1017 b 293 1058 312 1044 305 1061 b 205 970 256 1050 219 1027 b 308 822 175 850 237 807 z m 642 873 b 789 950 713 861 812 883 b 678 1021 766 1018 736 1086 b 661 936 620 955 704 912 b 640 1037 635 951 622 1023 b 716 1075 651 1045 679 1067 b 715 1097 728 1077 728 1095 b 601 1048 679 1103 635 1096 b 642 873 529 947 571 885 z "},"":{"ha":1549,"x_min":0,"x_max":0,"o":"m 1245 331 b 968 265 1153 312 1052 285 b 876 333 939 287 908 310 b 1279 546 1020 396 1301 440 b 939 554 1228 792 964 471 b 1078 858 914 637 1146 736 b 627 487 1003 991 810 986 b 428 552 560 520 493 544 b 476 358 144 590 244 348 b 561 359 506 359 534 359 b 545 340 556 352 550 346 b 266 243 493 284 399 243 b 266 -6 46 243 39 -6 b 612 356 391 -6 518 179 b 766 328 672 351 722 342 b 684 221 709 293 671 257 b 890 116 728 91 788 94 b 1006 168 922 123 963 144 b 1272 -6 1089 73 1135 -21 b 1245 331 1553 25 1470 376 z m 667 467 b 755 672 713 566 745 648 b 912 774 783 747 834 838 b 804 458 990 710 725 580 b 1103 517 871 354 963 546 b 832 363 1191 499 986 438 b 667 467 779 400 724 436 z m 800 282 b 826 306 806 290 815 298 b 917 253 861 291 890 273 b 800 282 824 234 768 233 z m 1174 130 b 1059 199 1143 142 1104 167 b 1275 283 1138 245 1221 291 b 1174 130 1373 270 1314 75 z "},"":{"ha":1115,"x_min":0,"x_max":0,"o":"m 623 552 b 326 421 537 552 422 496 b 282 467 311 440 296 456 b 209 595 217 516 184 571 b 396 563 233 620 341 508 b 311 816 451 618 258 763 b 717 620 364 869 476 620 b 988 852 957 620 1076 765 b 598 744 900 940 708 744 b 237 936 488 744 314 1012 b 315 654 161 859 352 692 b 111 677 277 617 180 746 b 300 400 52 618 225 476 b 145 167 212 325 145 236 b 296 14 145 20 247 14 b 433 175 391 14 433 98 b 343 397 433 229 391 326 b 474 491 375 431 417 464 b 898 332 704 601 894 448 b 686 131 902 199 815 101 b 721 322 602 151 690 248 b 609 466 756 403 715 466 b 459 210 521 466 415 375 b 780 26 490 97 596 -14 b 978 313 890 50 996 151 b 623 552 958 487 798 552 z m 313 169 b 324 373 263 169 249 273 b 329 367 326 371 328 369 b 313 169 366 310 384 169 z "},"":{"ha":1424,"x_min":0,"x_max":0,"o":"m 1305 381 b 961 544 1216 570 951 482 b 1227 812 970 606 1285 670 b 777 687 1106 1110 836 625 b 849 952 718 750 993 886 b 517 731 760 993 617 904 b 408 867 486 778 450 823 b 264 725 122 1164 -45 686 b 473 641 331 733 407 699 b 404 322 434 550 408 442 b 662 78 391 -98 611 -24 b 535 704 704 162 698 442 b 656 801 573 764 623 815 b 681 574 701 782 615 611 b 966 729 774 520 898 772 b 858 504 1034 685 804 617 b 1186 392 919 376 1203 540 b 959 352 1169 245 1032 326 b 906 82 885 379 567 305 b 1305 381 1244 -141 1378 224 z m 585 197 b 494 622 460 2 388 346 b 585 197 604 511 674 335 z "},"":{"ha":972,"x_min":0,"x_max":0,"o":"m 872 741 b 709 988 865 828 891 1037 b 654 741 555 946 699 787 b 446 850 609 696 556 925 b 436 678 371 798 481 715 b 132 809 391 641 283 960 b 350 442 -19 658 393 484 b 132 519 307 399 223 610 b 381 -32 41 428 203 -32 b 499 145 458 -32 537 29 b 193 438 461 259 148 393 b 454 329 238 483 368 243 b 230 727 541 416 158 655 b 473 540 302 800 381 499 b 534 738 564 580 471 738 b 677 586 597 738 590 615 b 872 741 788 549 882 636 z "},"":{"ha":1115,"x_min":0,"x_max":0,"o":"m 978 202 b 725 194 894 246 797 140 b 969 423 746 319 935 312 b 741 486 960 549 796 435 b 948 659 763 575 909 574 b 770 739 994 794 854 794 b 733 758 755 729 734 739 b 669 905 732 801 740 872 b 556 873 629 925 581 911 b 370 331 486 767 452 504 b 123 156 308 200 172 231 b 307 -116 37 24 201 -90 b 425 58 423 -156 552 -20 b 224 113 392 87 267 82 b 234 155 208 125 214 151 b 673 78 450 195 550 -15 b 839 138 722 113 777 147 b 648 -25 910 116 684 42 b 827 -133 584 -144 784 -154 b 978 202 928 -96 1093 120 z m 633 201 b 632 195 633 199 633 197 b 349 200 596 94 536 230 b 341 227 333 200 333 217 b 562 676 453 355 504 519 b 563 678 563 677 563 678 b 638 754 571 708 621 829 b 638 746 638 751 639 749 b 598 538 632 681 546 593 b 605 533 600 536 603 534 b 777 661 681 498 727 612 b 812 626 800 683 833 650 b 731 429 739 548 556 454 b 746 388 750 426 759 403 b 633 201 698 334 646 334 z "},"":{"ha":1058,"x_min":0,"x_max":0,"o":"m 410 734 b 785 577 522 726 710 587 b 960 694 859 566 960 579 b 781 826 960 770 887 826 b 136 588 271 826 132 690 b 280 510 140 486 280 547 b 99 328 280 474 99 441 b 297 280 99 216 278 346 b 163 50 316 214 176 222 b 655 8 154 -56 410 -112 b 902 302 788 72 902 180 b 625 270 902 423 709 420 b 256 99 504 52 255 -8 b 499 402 258 255 504 263 b 205 385 496 498 205 323 b 410 551 205 447 410 478 b 224 628 410 623 224 562 b 410 734 224 694 297 743 z "},"":{"ha":1318,"x_min":0,"x_max":0,"o":"m 982 614 b 1219 761 1174 607 1221 671 b 941 920 1217 875 1080 947 b 907 712 803 894 839 735 b 1060 720 994 683 1009 778 b 858 657 1111 663 934 680 b 731 600 724 618 769 562 b 825 845 694 638 825 765 b 723 959 825 924 790 965 b 636 759 560 945 576 825 b 664 580 697 694 711 590 b 511 723 617 570 623 716 b 344 739 423 727 285 654 b 248 969 423 855 360 969 b 101 747 121 969 89 850 b 393 641 121 574 244 557 b 603 576 542 725 607 627 b 160 164 599 525 150 382 b 442 11 166 41 329 -44 b 556 255 554 67 632 157 b 315 223 431 417 380 184 b 421 417 250 262 325 341 b 662 525 517 492 635 553 b 574 398 688 496 582 437 b 658 255 566 359 591 259 b 786 355 725 251 774 280 b 733 506 799 431 713 474 b 988 321 754 539 974 392 b 733 166 1013 198 763 285 b 884 13 713 82 754 27 b 1111 280 1015 -2 1142 113 b 788 539 1084 423 821 498 b 982 614 756 580 802 621 z "},"":{"ha":946,"x_min":0,"x_max":0,"o":"m 833 195 b 675 300 805 272 663 256 b 798 377 687 344 798 307 b 687 451 798 448 686 428 b 745 711 689 474 843 624 b 543 637 649 798 601 613 b 531 875 485 662 645 801 b 155 748 417 949 191 810 b 227 492 104 662 32 483 b 448 783 394 499 366 824 b 418 519 531 743 339 559 b 733 657 497 479 696 704 b 582 449 770 609 675 427 b 411 423 489 472 422 479 b 580 400 401 367 494 370 b 703 379 666 430 703 405 b 555 339 703 353 595 404 b 701 163 503 253 701 228 b 374 340 701 98 399 289 b 158 298 350 391 188 428 b 605 -13 128 168 316 -15 b 833 195 893 -11 854 138 z "},"":{"ha":1121,"x_min":0,"x_max":0,"o":"m 933 340 b 793 157 870 340 793 261 b 719 108 793 53 728 39 b 959 696 709 178 928 612 b 821 880 1001 809 945 880 b 651 449 698 880 670 521 b 544 157 633 377 581 157 b 530 356 507 157 633 304 b 208 155 427 407 269 124 b 567 703 148 186 567 575 b 409 855 567 831 521 855 b 99 652 297 855 99 757 b 220 512 99 547 145 512 b 439 710 315 512 391 758 b 115 106 487 662 124 232 b 266 -36 108 11 206 -36 b 467 225 392 -36 432 260 b 495 -3 502 190 367 -3 b 796 666 623 -3 716 666 b 665 130 875 666 665 237 b 793 -36 665 22 679 -36 b 1022 197 908 -36 1022 90 b 933 340 1022 304 996 340 z "},"":{"ha":1121,"x_min":0,"x_max":0,"o":"m 933 360 b 793 176 870 360 793 281 b 719 128 793 72 728 58 b 959 715 709 198 928 631 b 821 900 1001 829 945 900 b 651 468 698 900 670 541 b 544 176 633 396 581 176 b 530 375 507 176 633 324 b 208 175 427 426 269 144 b 567 722 148 205 567 594 b 409 874 567 851 521 874 b 99 671 297 874 99 776 b 220 531 99 566 145 531 b 439 729 315 531 391 777 b 115 126 487 682 124 251 b 266 -17 108 30 206 -17 b 467 245 392 -17 432 279 b 495 16 502 210 367 16 b 796 685 623 16 716 685 b 665 149 875 685 665 256 b 793 -17 665 42 679 -17 b 1022 217 908 -17 1022 110 b 933 360 1022 324 996 360 z m 669 873 b 832 1003 714 916 783 978 b 953 1171 908 1042 1046 1108 b 644 882 867 1229 724 1083 b 669 873 638 867 656 860 z "},"":{"ha":1278,"x_min":0,"x_max":0,"o":"m 967 335 b 578 168 877 327 627 111 b 1180 777 529 225 1180 484 b 621 590 1180 1070 753 834 b 224 13 543 447 282 -45 b 494 616 166 71 604 506 b 193 370 384 726 232 331 b 458 704 154 409 293 618 b 397 917 623 791 498 917 b 99 486 297 917 99 637 b 219 319 99 335 156 316 b 407 510 303 323 371 546 b 211 -15 444 473 127 68 b 910 610 294 -99 826 694 b 555 142 995 525 476 221 b 993 203 633 63 931 305 b 787 11 1042 123 759 192 b 926 -70 796 -53 843 -81 b 1174 180 1099 -48 1174 44 b 967 335 1174 315 1060 343 z "},"":{"ha":1215,"x_min":0,"x_max":0,"o":"m 752 241 b 1060 557 751 322 1218 330 b 811 485 962 698 845 417 b 780 856 776 555 955 856 b 246 65 627 856 426 22 b 366 238 193 77 366 192 b 291 375 366 284 365 386 b 212 -9 26 336 70 -13 b 704 703 466 -2 632 725 b 704 374 776 681 577 451 b 967 485 767 336 933 538 b 627 150 1001 432 604 320 b 813 -42 639 60 737 -21 b 1116 133 888 -62 1098 -62 b 753 241 1135 329 754 161 z "},"":{"ha":1519,"x_min":0,"x_max":0,"o":"m 1290 871 b 942 400 1133 850 1078 590 b 753 202 872 302 843 209 b 1103 830 488 182 1117 646 b 919 899 1089 1015 977 944 b 693 511 861 855 731 514 b 782 790 655 508 788 708 b 654 912 775 872 727 918 b 544 803 580 907 540 857 b 560 677 548 750 602 680 b 381 906 518 674 497 880 b 226 802 290 926 223 886 b 477 561 231 672 473 610 b 327 559 481 512 385 563 b 251 478 269 554 247 529 b 377 399 252 454 314 409 b 542 378 456 388 540 413 b 343 142 547 316 421 148 b 409 272 266 136 415 199 b 312 372 404 345 421 380 b 99 119 203 364 89 261 b 319 -5 110 -24 232 -12 b 616 375 405 1 626 244 b 457 439 606 506 531 445 b 401 470 384 433 396 463 b 542 530 431 513 547 470 b 486 651 538 579 453 613 b 601 575 519 690 563 572 b 674 739 639 578 620 735 b 642 507 727 744 638 566 b 723 475 647 449 699 458 b 951 746 782 518 866 739 b 700 388 1035 752 772 472 b 570 126 629 304 562 239 b 740 20 579 12 704 16 b 980 389 884 35 910 268 b 1205 661 1050 511 1168 683 b 960 95 1286 615 948 253 b 1168 -19 972 -63 1139 -21 b 1409 243 1196 -17 1413 31 b 1236 339 1408 357 1339 382 b 1030 147 1132 296 1081 103 b 1419 738 978 191 1399 584 b 1290 871 1431 835 1370 882 z "},"":{"ha":1258,"x_min":0,"x_max":0,"o":"m 1154 718 b 857 697 1095 945 908 683 b 826 974 804 712 970 943 b 572 427 683 1005 539 681 b 578 385 574 412 576 399 b 539 378 565 383 552 381 b 516 543 544 453 540 521 b 431 514 477 577 462 492 b 578 800 405 532 660 718 b 269 660 496 882 422 710 b 189 427 115 611 18 427 b 531 759 359 427 486 804 b 387 448 576 713 303 516 b 488 494 423 419 457 525 b 493 368 500 482 501 429 b 232 117 357 335 233 268 b 519 201 230 -131 491 23 b 537 345 525 243 532 295 b 586 345 552 346 568 346 b 828 -4 629 136 728 -4 b 1012 125 941 -4 1012 16 b 880 234 1012 234 933 234 b 622 343 834 234 671 188 b 699 332 646 341 672 337 b 948 482 1150 250 1069 482 b 798 514 827 482 797 476 b 1154 718 800 601 1208 513 z m 392 160 b 488 340 325 160 305 308 b 392 160 473 252 439 160 z m 847 431 b 613 390 847 407 738 407 b 609 445 610 407 609 425 b 822 845 609 720 765 845 b 779 646 880 845 779 705 b 847 599 779 587 818 595 b 927 607 904 607 927 644 b 701 494 927 570 701 587 b 847 431 701 402 847 488 z "},"":{"ha":1440,"x_min":0,"x_max":0,"o":"m 1147 382 b 915 458 1031 408 915 413 b 1176 430 915 503 1087 430 b 1334 596 1265 430 1334 509 b 1071 750 1334 683 1198 750 b 752 599 944 750 837 599 b 467 797 667 599 659 797 b 201 596 275 797 201 717 b 333 430 201 596 199 430 b 572 503 467 430 545 554 b 99 77 598 451 99 322 b 304 -66 99 -57 206 -88 b 643 284 467 -30 607 320 b 578 108 679 248 600 178 b 658 -19 560 50 598 -19 b 757 57 719 -19 701 57 b 835 -19 812 57 790 -6 b 919 68 871 -30 937 3 b 879 215 903 128 815 175 b 1098 -28 924 242 944 -17 b 1341 161 1180 -34 1341 -24 b 1147 382 1341 282 1236 362 z m 1212 162 b 902 320 1161 -25 980 280 b 783 251 824 360 783 309 b 828 86 783 193 868 126 b 741 161 788 45 788 161 b 636 101 694 161 690 101 b 709 289 583 101 700 243 b 623 382 720 340 696 373 b 270 119 499 398 373 17 b 638 512 167 222 632 391 b 525 605 643 590 609 616 b 324 596 440 594 324 549 b 438 686 324 643 348 674 b 742 574 527 697 683 581 b 902 634 801 567 806 596 b 1243 579 998 672 1243 652 b 1015 581 1243 505 1172 535 b 828 505 859 628 837 555 b 875 416 823 477 829 446 b 1212 162 944 371 1245 283 z "},"":{"ha":1463,"x_min":0,"x_max":0,"o":"m 1075 599 b 1364 720 1161 652 1358 557 b 1009 881 1370 883 1120 905 b 892 704 899 857 973 687 b 754 879 816 720 903 898 b 659 785 673 869 756 701 b 361 726 512 912 340 938 b 659 551 381 514 657 604 b 350 116 664 405 395 71 b 397 259 306 161 397 196 b 285 377 397 322 377 380 b 102 257 173 373 112 316 b 304 -12 91 198 96 -8 b 712 557 512 -17 712 489 b 514 718 712 624 520 640 b 733 643 508 795 656 624 b 777 769 809 661 710 736 b 889 636 844 801 814 639 b 1097 808 991 632 945 810 b 1219 728 1152 807 1207 814 b 983 669 1232 642 1050 744 b 1011 508 916 593 1038 598 b 865 422 989 431 881 522 b 1122 -45 848 322 979 -43 b 1252 161 1264 -47 1321 41 b 989 431 1183 281 813 394 b 1063 475 1039 442 1052 460 b 1075 600 1109 537 1016 563 z "},"":{"ha":1072,"x_min":0,"x_max":0,"o":"m 594 604 b 891 914 594 695 1061 744 b 423 650 750 1054 550 763 b 220 880 385 775 320 880 b 280 529 -19 880 146 529 b 382 571 309 529 344 545 b 432 287 432 454 468 316 b 195 421 348 220 320 540 b 354 117 44 276 394 184 b 117 151 323 66 144 336 b 246 12 117 151 95 12 b 445 82 398 12 445 8 b 249 323 445 155 201 275 b 447 247 297 370 377 205 b 434 609 475 263 476 445 b 722 827 557 708 689 859 b 519 592 769 779 519 686 b 804 446 519 499 804 541 b 516 476 804 352 589 549 b 666 133 444 404 546 143 b 786 242 753 126 803 175 b 556 421 757 360 498 362 b 965 401 615 479 884 160 b 594 604 1045 641 594 512 z m 356 608 b 260 740 246 590 202 708 b 364 610 283 752 326 691 b 356 608 361 609 358 608 z "},"":{"ha":1281,"x_min":0,"x_max":0,"o":"m 491 146 b 320 382 285 182 160 267 b 461 549 426 458 460 504 b 297 723 462 627 265 654 b 547 657 330 791 486 622 b 585 805 607 692 532 805 b 655 680 637 805 588 712 b 825 725 684 667 759 720 b 1035 519 924 733 870 496 b 1074 843 1182 540 1258 740 b 682 758 887 948 735 732 b 597 972 646 775 763 960 b 486 750 405 986 537 784 b 129 831 421 707 304 1104 b 378 536 -7 619 358 603 b 216 230 397 469 152 393 b 1160 206 295 28 1216 -176 b 491 146 1115 513 710 108 z "},"":{"ha":1492,"x_min":0,"x_max":0,"o":"m 1390 577 b 1097 882 1376 682 1243 905 b 1017 649 950 859 1083 658 b 896 838 952 640 987 859 b 842 735 805 817 898 742 b 674 826 786 728 765 884 b 532 502 584 768 602 502 b 395 763 462 502 574 763 b 99 488 215 763 99 602 b 257 373 99 374 170 339 b 409 584 387 422 346 584 b 514 373 472 584 404 373 b 705 781 623 373 631 781 b 798 481 778 781 866 677 b 675 -36 730 285 443 18 b 889 129 770 -57 889 10 b 903 754 889 248 845 754 b 1006 495 961 754 917 495 b 1134 684 1094 495 1076 684 b 1120 439 1192 684 1113 509 b 1281 311 1127 369 1191 283 b 1390 577 1372 339 1404 472 z "},"":{"ha":1394,"x_min":0,"x_max":0,"o":"m 1235 838 b 908 871 1172 901 1011 973 b 921 584 805 768 964 625 b 845 569 878 543 885 642 b 738 450 804 495 751 380 b 699 620 726 521 749 594 b 555 498 649 645 572 472 b 672 835 538 523 727 732 b 395 866 626 923 503 945 b 201 569 303 799 212 686 b 335 445 194 506 254 434 b 555 838 532 470 412 810 b 596 675 655 857 649 764 b 502 401 543 587 426 477 b 665 488 578 325 623 529 b 736 285 707 446 609 285 b 946 536 863 285 888 536 b 883 138 1005 536 956 158 b 685 247 809 117 771 254 b 384 57 599 239 419 23 b 523 310 350 91 523 219 b 188 325 523 401 292 447 b 127 102 109 232 67 162 b 354 190 187 42 314 68 b 461 293 395 311 449 315 b 344 -22 496 228 250 42 b 613 100 457 -98 532 100 b 804 13 694 100 720 13 b 972 599 888 13 1082 260 b 1068 617 875 899 1068 749 b 1258 556 1068 485 1195 493 b 1235 838 1322 620 1299 774 z "},"":{"ha":1413,"x_min":0,"x_max":0,"o":"m 1053 723 b 978 540 914 683 1049 525 b 866 858 859 565 1017 809 b 762 744 803 878 739 811 b 733 576 784 676 768 578 b 735 680 698 575 709 591 b 684 778 762 770 730 785 b 645 660 609 767 621 717 b 588 584 670 603 635 558 b 527 844 541 611 647 877 b 394 540 394 806 425 541 b 276 754 359 540 429 754 b 100 501 190 753 104 652 b 294 158 98 442 80 156 b 619 438 509 160 537 515 b 529 136 700 360 529 221 b 672 -17 529 50 586 -17 b 792 164 757 -17 800 70 b 725 419 784 258 682 366 b 1076 193 768 472 913 193 b 1310 519 1239 193 1282 321 b 1053 723 1339 717 1158 753 z m 517 509 b 334 297 481 498 469 329 b 164 450 199 264 180 358 b 246 643 148 542 172 643 b 341 428 319 643 252 442 b 511 723 513 401 458 707 b 544 589 554 736 503 643 b 516 509 575 547 584 529 z m 955 385 b 846 495 877 419 905 471 b 802 614 801 513 779 569 b 844 754 829 666 770 753 b 992 450 892 755 822 443 b 1096 595 1052 452 1091 487 b 1243 533 1100 670 1238 630 b 955 385 1248 437 1199 277 z "},"":{"ha":1483,"x_min":0,"x_max":0,"o":"m 1265 606 b 692 441 1168 624 918 548 b 1133 641 928 763 1032 717 b 1242 935 1261 546 1564 935 b 757 669 1040 935 877 811 b 635 770 733 716 719 771 b 271 579 510 769 330 519 b 491 812 213 640 474 735 b 299 983 507 889 444 1018 b 218 444 115 938 -1 444 b 619 721 437 444 526 689 b 731 637 672 740 709 686 b 565 375 658 545 602 448 b 279 37 367 264 221 134 b 643 135 363 -103 537 37 b 821 291 696 185 758 239 b 1018 -22 847 180 904 -2 b 1279 201 1144 -45 1212 83 b 1265 606 1362 345 1473 569 z m 1063 292 b 946 386 997 287 963 339 b 1205 471 1065 470 1168 519 b 1063 292 1258 401 1182 301 z "},"":{"ha":1238,"x_min":0,"x_max":0,"o":"m 752 144 b 1109 833 620 190 1287 722 b 721 430 846 999 797 647 b 313 139 646 213 371 44 b 619 425 252 236 631 287 b 451 482 608 561 461 425 b 609 868 433 577 829 742 b 263 597 480 942 306 545 b 375 751 220 649 332 644 b 263 880 418 857 343 892 b 258 532 -15 837 113 544 b 592 744 402 520 532 809 b 321 430 652 679 273 539 b 578 413 365 333 546 449 b 335 314 611 376 504 361 b 327 -13 166 268 2 -8 b 933 694 651 -18 839 744 b 667 66 1028 643 540 167 b 977 192 758 -6 948 257 b 690 -56 1005 126 740 44 b 832 -196 663 -111 690 -205 b 1068 209 974 -187 1111 54 b 752 144 1025 364 844 111 z "},"":{"ha":1050,"x_min":0,"x_max":0,"o":"m 945 348 b 830 441 909 432 881 457 b 680 348 778 426 714 320 b 685 594 645 376 624 524 b 909 869 745 665 1011 722 b 640 805 807 1015 664 946 b 607 470 616 663 654 498 b 368 386 561 441 388 351 b 592 598 347 420 628 513 b 349 627 556 682 371 581 b 592 805 326 674 588 703 b 228 974 595 907 323 982 b 99 817 133 965 100 881 b 275 708 96 724 185 674 b 452 781 364 743 435 831 b 216 569 469 731 149 674 b 430 560 283 463 416 631 b 295 331 443 489 164 419 b 611 403 426 243 564 455 b 674 303 657 351 627 313 b 757 315 720 292 756 365 b 513 86 759 265 475 243 b 775 44 550 -71 711 0 b 945 348 838 89 981 263 z "},"":{"ha":1672,"x_min":0,"x_max":0,"o":"m 1249 967 b 1190 535 1102 925 1105 774 b 975 153 1281 278 1036 -4 b 977 750 890 374 1243 667 b 620 112 740 823 851 108 b 608 360 531 113 702 343 b 372 91 463 386 434 44 b 594 717 310 137 589 593 b 292 910 599 841 418 941 b 274 479 166 879 -62 448 b 494 716 403 491 379 726 b 303 212 610 706 391 374 b 353 -7 215 50 268 -15 b 537 179 434 0 479 211 b 598 -7 586 152 452 -7 b 932 601 820 -7 816 601 b 849 132 1047 601 849 265 b 1070 -7 849 0 980 -38 b 1295 339 1160 24 1307 177 b 1212 718 1275 617 1147 636 b 1392 631 1260 777 1278 658 b 1574 783 1506 603 1574 687 b 1249 967 1574 880 1467 1028 z "},"":{"ha":1381,"x_min":0,"x_max":0,"o":"m 1229 255 b 950 146 1133 312 995 101 b 1257 713 905 191 1257 588 b 984 876 1257 839 1103 936 b 879 488 866 815 914 522 b 705 707 782 395 838 783 b 679 156 572 631 821 211 b 444 385 600 125 551 451 b 326 77 337 320 441 68 b 350 372 207 86 224 234 b 548 819 476 510 602 727 b 190 801 495 910 307 907 b 176 467 72 696 69 558 b 398 622 259 396 400 515 b 471 750 397 729 421 800 b 345 407 521 700 469 555 b 300 7 221 258 59 45 b 517 241 541 -31 453 241 b 733 15 581 241 560 -53 b 764 446 905 82 676 446 b 873 371 852 446 792 353 b 1052 746 958 390 917 812 b 876 81 1186 681 781 160 b 1097 160 971 1 1059 226 b 940 -93 1134 95 864 20 b 1211 -99 1016 -207 1151 -180 b 1229 255 1271 -18 1326 198 z "},"":{"ha":1104,"x_min":0,"x_max":0,"o":"m 762 460 b 633 73 566 362 838 138 b 606 355 504 32 756 294 b 424 250 494 401 459 207 b 766 747 334 363 861 553 b 532 705 694 892 597 677 b 483 967 467 734 726 924 b 107 736 285 1002 138 850 b 278 517 76 622 131 502 b 466 776 438 533 376 809 b 466 600 527 753 388 657 b 731 686 543 543 707 776 b 399 386 755 597 519 493 b 347 186 316 312 282 240 b 531 220 454 96 491 279 b 486 -7 570 162 405 109 b 779 -64 567 -122 671 -91 b 1005 216 888 -36 1003 86 b 762 460 1007 369 917 538 z "},"":{"ha":1313,"x_min":0,"x_max":0,"o":"m 584 459 b 436 247 455 477 432 396 b 334 118 439 117 409 119 b 312 287 251 117 250 216 b 419 442 374 358 448 396 b 255 416 389 489 269 389 b 525 739 241 444 522 608 b 293 892 529 870 415 928 b 248 580 170 856 -50 640 b 432 728 348 560 365 787 b 213 485 500 670 268 532 b 175 335 158 439 129 371 b 344 392 222 299 320 430 b 196 66 368 354 141 228 b 675 156 251 -96 587 -15 b 584 459 763 327 713 442 z m 1212 525 b 978 595 1188 628 1090 652 b 781 591 900 555 800 524 b 1093 910 924 668 1112 822 b 878 956 1071 1016 954 1041 b 746 675 834 906 767 781 b 538 601 634 683 529 721 b 702 555 541 555 564 508 b 745 573 715 560 730 566 b 799 510 753 544 769 521 b 1000 502 938 456 1004 579 b 768 304 997 425 719 379 b 902 283 816 229 916 355 b 723 103 888 211 725 197 b 1031 49 720 -47 919 -109 b 1095 343 1143 208 1194 304 b 826 317 995 383 840 286 b 1212 525 812 348 1236 422 z m 809 740 b 1009 845 907 982 1031 902 b 883 695 986 788 945 725 b 786 674 853 680 820 675 b 809 740 791 693 799 715 z "},"":{"ha":919,"x_min":0,"x_max":0,"o":"m 593 534 b 551 275 474 480 468 337 b 362 156 671 187 445 151 b 339 325 279 161 277 254 b 446 480 401 396 476 434 b 342 536 417 527 356 508 b 553 777 328 564 550 646 b 340 950 557 908 468 954 b 216 660 213 947 -56 796 b 433 756 307 615 383 830 b 289 559 483 682 344 605 b 372 430 234 512 348 468 b 224 104 396 392 169 266 b 788 184 279 -58 700 14 b 593 534 876 355 776 617 z "},"":{"ha":1158,"x_min":0,"x_max":0,"o":"m 1058 516 b 576 546 1022 646 591 496 b 942 720 560 596 892 677 b 895 922 1023 789 1022 870 b 462 949 767 974 638 982 b 102 729 286 917 148 901 b 309 613 77 636 202 574 b 700 794 416 653 597 777 b 762 699 822 814 854 752 b 478 539 671 646 455 629 b 992 527 500 449 992 575 b 562 380 992 478 626 482 b 740 187 498 279 802 256 b 407 239 678 118 379 152 b 488 430 436 330 516 311 b 190 465 465 530 259 587 b 252 93 139 376 119 179 b 785 45 388 4 626 -50 b 826 304 943 140 921 247 b 643 360 731 360 647 305 b 1058 516 640 415 1094 387 z "},"":{"ha":1532,"x_min":0,"x_max":0,"o":"m 1373 302 b 1198 344 1299 339 1203 290 b 1411 687 1192 397 1509 526 b 1208 620 1314 847 1256 571 b 972 930 1160 668 1168 945 b 761 656 775 914 705 804 b 815 442 818 508 891 460 b 681 419 739 423 657 346 b 663 538 716 525 692 523 b 436 415 561 593 481 387 b 675 823 391 442 777 718 b 156 723 574 928 234 814 b 280 485 41 587 106 446 b 612 790 386 509 542 863 b 348 383 680 718 313 473 b 620 432 382 294 603 496 b 270 166 637 368 274 371 b 510 -39 268 47 377 -82 b 560 176 642 4 648 132 b 612 328 472 221 532 368 b 829 399 691 289 787 461 b 705 99 870 337 670 209 b 890 8 739 -11 835 -30 b 967 185 945 45 913 230 b 1291 16 1020 140 1096 -15 b 1373 302 1486 47 1448 266 z m 1176 106 b 959 359 1010 112 1032 323 b 765 155 886 394 824 98 b 972 463 706 213 935 400 b 937 817 1010 525 846 787 b 1128 495 1028 847 1046 535 b 1334 629 1212 456 1285 716 b 1050 343 1383 543 1059 430 b 1314 219 1040 256 1290 294 b 1176 106 1337 144 1259 103 z "},"":{"ha":1389,"x_min":0,"x_max":0,"o":"m 960 260 b 1274 527 983 347 1294 371 b 999 501 1254 683 1072 452 b 1001 879 926 551 1252 762 b 598 381 724 1008 510 486 b 786 436 687 276 734 472 b 480 55 882 369 579 70 b 474 154 420 46 401 44 b 359 333 547 264 462 381 b 359 -2 257 286 146 44 b 853 473 573 -48 904 387 b 662 473 770 612 721 412 b 904 697 602 533 810 732 b 934 395 999 661 841 448 b 1213 473 1026 341 1147 585 b 810 201 1250 408 810 320 b 1096 -54 810 83 930 -46 b 1288 53 1262 -62 1277 -27 b 960 260 1319 300 936 173 z "},"":{"ha":1549,"x_min":0,"x_max":0,"o":"m 1245 310 b 968 244 1153 291 1052 264 b 876 312 939 266 908 289 b 1279 525 1020 375 1301 419 b 939 533 1228 771 964 450 b 1078 838 914 616 1146 715 b 627 466 1003 970 810 965 b 428 531 560 499 493 523 b 476 337 144 569 244 327 b 561 338 506 338 534 339 b 545 319 556 331 550 325 b 266 222 493 264 399 222 b 266 -26 46 222 39 -26 b 612 335 391 -26 518 158 b 766 307 672 330 722 321 b 684 200 709 273 671 236 b 890 95 728 70 788 73 b 1006 148 922 102 963 123 b 1272 -26 1089 52 1135 -41 b 1245 310 1553 4 1470 356 z m 667 446 b 755 652 713 545 745 627 b 912 753 783 726 834 817 b 804 437 990 689 725 559 b 1103 496 871 333 963 525 b 832 343 1191 478 986 417 b 667 446 779 379 724 415 z m 800 261 b 826 285 806 270 815 278 b 917 233 861 270 890 252 b 800 261 824 214 768 212 z m 1174 109 b 1059 178 1143 121 1104 146 b 1275 263 1138 224 1221 270 b 1174 109 1373 249 1314 54 z "},"":{"ha":1115,"x_min":0,"x_max":0,"o":"m 623 514 b 326 382 537 514 422 457 b 282 428 311 401 296 417 b 209 556 217 477 184 532 b 396 524 233 581 341 469 b 311 777 451 579 258 724 b 717 581 364 830 476 581 b 988 813 957 581 1076 726 b 598 705 900 901 708 705 b 237 897 488 705 314 974 b 315 616 161 821 352 653 b 111 638 277 578 180 707 b 300 361 52 579 225 437 b 145 128 212 286 145 197 b 296 -25 145 -19 247 -25 b 433 136 391 -25 433 59 b 343 358 433 190 391 288 b 474 452 375 392 417 425 b 898 293 704 563 894 409 b 686 93 902 160 815 63 b 721 283 602 112 690 210 b 609 427 756 364 715 427 b 459 171 521 427 415 336 b 780 -13 490 58 596 -53 b 978 274 890 11 996 112 b 623 514 958 448 798 514 z m 313 130 b 324 335 263 130 249 234 b 329 328 326 332 328 330 b 313 130 366 271 384 130 z "},"":{"ha":1424,"x_min":0,"x_max":0,"o":"m 1305 381 b 961 544 1216 570 951 482 b 1227 812 970 606 1285 670 b 777 687 1106 1110 836 625 b 849 952 718 750 993 886 b 517 731 760 993 617 904 b 408 867 486 778 450 823 b 264 725 122 1164 -45 686 b 473 641 331 733 407 699 b 404 322 434 550 408 442 b 662 78 391 -98 611 -24 b 535 704 704 162 698 442 b 656 801 573 764 623 815 b 681 574 701 782 615 611 b 966 729 774 520 898 772 b 858 504 1034 685 804 617 b 1186 392 919 376 1203 540 b 959 352 1169 245 1032 326 b 906 82 885 379 567 305 b 1305 381 1244 -141 1378 224 z m 585 197 b 494 622 460 2 388 346 b 585 197 604 511 674 335 z "},"":{"ha":972,"x_min":0,"x_max":0,"o":"m 872 741 b 709 988 865 828 891 1037 b 654 741 555 946 699 787 b 446 850 609 696 556 925 b 436 678 371 798 481 715 b 132 809 391 641 283 960 b 350 442 -19 658 393 484 b 132 519 307 399 223 610 b 381 -32 41 428 203 -32 b 499 145 458 -32 537 29 b 193 438 461 259 148 393 b 454 329 238 483 368 243 b 230 727 541 416 158 655 b 473 540 302 800 381 499 b 534 738 564 580 471 738 b 677 586 597 738 590 615 b 872 741 788 549 882 636 z "},"":{"ha":1115,"x_min":0,"x_max":0,"o":"m 978 162 b 725 154 894 205 797 100 b 969 383 746 278 935 272 b 741 446 960 509 796 395 b 948 619 763 534 909 534 b 770 699 994 754 854 754 b 733 718 755 689 734 699 b 669 865 732 761 740 831 b 556 833 629 884 581 871 b 370 291 486 726 452 464 b 123 116 308 160 172 191 b 307 -156 37 -16 201 -130 b 425 18 423 -196 552 -61 b 224 73 392 47 267 42 b 234 115 208 84 214 111 b 673 38 450 155 550 -55 b 839 98 722 72 777 107 b 648 -66 910 76 684 1 b 827 -174 584 -184 784 -194 b 978 162 928 -137 1093 80 z m 633 160 b 632 155 633 158 633 156 b 349 160 596 53 536 190 b 341 187 333 160 333 177 b 562 636 453 315 504 479 b 563 638 563 637 563 637 b 638 714 571 668 621 789 b 638 706 638 711 639 709 b 598 497 632 640 546 553 b 605 492 600 495 603 494 b 777 621 681 458 727 572 b 812 586 800 643 833 609 b 731 388 739 508 556 413 b 746 348 750 386 759 363 b 633 160 698 294 646 293 z "},"":{"ha":1058,"x_min":0,"x_max":0,"o":"m 410 773 b 785 615 522 765 710 626 b 960 733 859 605 960 618 b 781 865 960 809 887 865 b 136 627 271 865 132 729 b 280 549 140 525 280 586 b 99 367 280 513 99 480 b 297 319 99 254 278 385 b 163 89 316 253 176 261 b 655 46 154 -17 410 -73 b 902 341 788 111 902 219 b 625 309 902 462 709 459 b 256 138 504 91 255 31 b 499 441 258 294 504 302 b 205 424 496 536 205 362 b 410 590 205 485 410 517 b 224 667 410 662 224 600 b 410 773 224 733 297 782 z "},"":{"ha":1318,"x_min":0,"x_max":0,"o":"m 982 574 b 1219 721 1174 567 1221 630 b 941 880 1217 835 1080 907 b 907 672 803 854 839 694 b 1060 680 994 643 1009 737 b 858 617 1111 623 934 639 b 731 560 724 578 769 522 b 825 805 694 598 825 725 b 723 919 825 884 790 925 b 636 719 560 905 576 784 b 664 539 697 654 711 550 b 511 682 617 529 623 676 b 344 699 423 687 285 613 b 248 929 423 815 360 929 b 101 707 121 929 89 810 b 393 601 121 533 244 517 b 603 535 542 684 607 586 b 160 123 599 484 150 342 b 442 -29 166 1 329 -84 b 556 215 554 26 632 116 b 315 182 431 376 380 144 b 421 376 250 221 325 301 b 662 484 517 452 635 513 b 574 358 688 456 582 397 b 658 215 566 319 591 219 b 786 315 725 211 774 240 b 733 466 799 391 713 433 b 988 280 754 499 974 351 b 733 125 1013 158 763 245 b 884 -28 713 42 754 -13 b 1111 240 1015 -42 1142 73 b 788 499 1084 382 821 458 b 982 574 756 539 802 581 z "},"":{"ha":946,"x_min":0,"x_max":0,"o":"m 833 195 b 675 300 805 272 663 256 b 798 377 687 344 798 307 b 687 451 798 448 686 428 b 745 711 689 474 843 624 b 543 637 649 798 601 613 b 531 875 485 662 645 801 b 155 748 417 949 191 810 b 227 492 104 662 32 483 b 448 783 394 499 366 824 b 418 519 531 743 339 559 b 733 657 497 479 696 704 b 582 449 770 609 675 427 b 411 423 489 472 422 479 b 580 400 401 367 494 370 b 703 379 666 430 703 405 b 555 339 703 353 595 404 b 701 163 503 253 701 228 b 374 340 701 98 399 289 b 158 298 350 391 188 428 b 605 -13 128 168 316 -15 b 833 195 893 -11 854 138 z "},"":{"ha":1121,"x_min":0,"x_max":0,"o":"m 933 360 b 793 176 870 360 793 281 b 719 128 793 72 728 58 b 959 715 709 198 928 631 b 821 900 1001 829 945 900 b 651 468 698 900 670 541 b 544 176 633 396 581 176 b 530 375 507 176 633 324 b 208 175 427 426 269 144 b 567 722 148 205 567 594 b 409 874 567 851 521 874 b 99 671 297 874 99 776 b 220 531 99 566 145 531 b 439 729 315 531 391 777 b 115 126 487 682 124 251 b 266 -17 108 30 206 -17 b 467 245 392 -17 432 279 b 495 16 502 210 367 16 b 796 685 623 16 716 685 b 665 149 875 685 665 256 b 793 -17 665 42 679 -17 b 1022 217 908 -17 1022 110 b 933 360 1022 324 996 360 z "},"":{"ha":1121,"x_min":0,"x_max":0,"o":"m 933 360 b 793 176 870 360 793 281 b 719 128 793 72 728 58 b 959 715 709 198 928 631 b 821 900 1001 829 945 900 b 651 468 698 900 670 541 b 544 176 633 396 581 176 b 530 375 507 176 633 324 b 208 175 427 426 269 144 b 567 722 148 205 567 594 b 409 874 567 851 521 874 b 99 671 297 874 99 776 b 220 531 99 566 145 531 b 439 729 315 531 391 777 b 115 126 487 682 124 251 b 266 -17 108 30 206 -17 b 467 245 392 -17 432 279 b 495 16 502 210 367 16 b 796 685 623 16 716 685 b 665 149 875 685 665 256 b 793 -17 665 42 679 -17 b 1022 217 908 -17 1022 110 b 933 360 1022 324 996 360 z m 669 873 b 832 1003 714 916 783 978 b 953 1171 908 1042 1046 1108 b 644 882 867 1229 724 1083 b 669 873 638 867 656 860 z "},"":{"ha":1278,"x_min":0,"x_max":0,"o":"m 967 335 b 578 168 877 327 627 111 b 1180 777 529 225 1180 484 b 621 590 1180 1070 753 834 b 224 13 543 447 282 -45 b 494 616 166 71 604 506 b 193 370 384 726 232 331 b 458 704 154 409 293 618 b 397 917 623 791 498 917 b 99 486 297 917 99 637 b 219 319 99 335 156 316 b 407 510 303 323 371 546 b 211 -15 444 473 127 68 b 910 610 294 -99 826 694 b 555 142 995 525 476 221 b 993 203 633 63 931 305 b 787 11 1042 123 759 192 b 926 -70 796 -53 843 -81 b 1174 180 1099 -48 1174 44 b 967 335 1174 315 1060 343 z "},"":{"ha":1215,"x_min":0,"x_max":0,"o":"m 752 222 b 1060 538 751 303 1218 311 b 811 466 962 679 845 397 b 780 836 776 535 955 836 b 246 45 627 836 426 2 b 366 219 193 58 366 172 b 291 356 366 265 365 367 b 212 -29 26 316 70 -32 b 704 684 466 -22 632 706 b 704 354 776 661 577 431 b 967 466 767 316 933 519 b 627 131 1001 412 604 301 b 813 -61 639 41 737 -41 b 1116 114 888 -82 1098 -82 b 753 222 1135 310 754 141 z "},"":{"ha":1519,"x_min":0,"x_max":0,"o":"m 1290 850 b 942 379 1133 830 1078 569 b 753 181 872 281 843 188 b 1103 809 488 161 1117 625 b 919 878 1089 994 977 923 b 693 490 861 834 731 493 b 782 769 655 487 788 687 b 654 892 775 852 727 897 b 544 783 580 886 540 836 b 560 656 548 729 602 660 b 381 885 518 653 497 860 b 226 781 290 906 223 866 b 477 540 231 652 473 589 b 327 538 481 492 385 542 b 251 457 269 534 247 508 b 377 379 252 434 314 388 b 542 358 456 367 540 392 b 343 121 547 295 421 127 b 409 251 266 115 415 178 b 312 351 404 325 421 360 b 99 98 203 343 89 240 b 319 -26 110 -44 232 -33 b 616 354 405 -20 626 223 b 457 418 606 485 531 424 b 401 450 384 413 396 442 b 542 510 431 492 547 450 b 486 631 538 558 453 592 b 601 554 519 669 563 551 b 674 719 639 557 620 715 b 642 486 727 723 638 545 b 723 454 647 428 699 437 b 951 725 782 497 866 718 b 700 367 1035 731 772 451 b 570 105 629 284 562 218 b 740 -1 579 -9 704 -5 b 980 368 884 14 910 247 b 1205 641 1050 490 1168 662 b 960 74 1286 594 948 232 b 1168 -40 972 -84 1139 -42 b 1409 222 1196 -38 1413 10 b 1236 319 1408 336 1339 362 b 1030 126 1132 275 1081 82 b 1419 717 978 171 1399 563 b 1290 850 1431 814 1370 861 z "},"":{"ha":1258,"x_min":0,"x_max":0,"o":"m 1154 718 b 857 697 1095 945 908 683 b 826 974 804 712 970 943 b 572 427 683 1005 539 681 b 578 385 574 412 576 399 b 539 378 565 383 552 381 b 516 543 544 453 540 521 b 431 514 477 577 462 492 b 578 800 405 532 660 718 b 269 660 496 882 422 710 b 189 427 115 611 18 427 b 531 759 359 427 486 804 b 387 448 576 713 303 516 b 488 494 423 419 457 525 b 493 368 500 482 501 429 b 232 117 357 335 233 268 b 519 201 230 -131 491 23 b 537 345 525 243 532 295 b 586 345 552 346 568 346 b 828 -4 629 136 728 -4 b 1012 125 941 -4 1012 16 b 880 234 1012 234 933 234 b 622 343 834 234 671 188 b 699 332 646 341 672 337 b 948 482 1150 250 1069 482 b 798 514 827 482 797 476 b 1154 718 800 601 1208 513 z m 392 160 b 488 340 325 160 305 308 b 392 160 473 252 439 160 z m 847 431 b 613 390 847 407 738 407 b 609 445 610 407 609 425 b 822 845 609 720 765 845 b 779 646 880 845 779 705 b 847 599 779 587 818 595 b 927 607 904 607 927 644 b 701 494 927 570 701 587 b 847 431 701 402 847 488 z "},"":{"ha":1440,"x_min":0,"x_max":0,"o":"m 1147 403 b 915 479 1031 429 915 434 b 1176 451 915 524 1087 451 b 1334 617 1265 451 1334 530 b 1071 771 1334 704 1198 771 b 752 619 944 771 837 619 b 467 818 667 619 659 818 b 201 617 275 818 201 738 b 333 451 201 617 199 451 b 572 524 467 451 545 575 b 99 98 598 472 99 343 b 304 -45 99 -36 206 -67 b 643 305 467 -10 607 341 b 578 129 679 269 600 199 b 658 1 560 71 598 1 b 757 77 719 1 701 77 b 835 2 812 77 790 15 b 919 89 871 -9 937 24 b 879 236 903 149 815 196 b 1098 -7 924 263 944 4 b 1341 182 1180 -13 1341 -3 b 1147 403 1341 303 1236 383 z m 1212 183 b 902 341 1161 -4 980 300 b 783 272 824 381 783 329 b 828 107 783 214 868 147 b 741 182 788 66 788 182 b 636 122 694 182 690 122 b 709 309 583 122 700 263 b 623 403 720 361 696 394 b 270 140 499 419 373 37 b 638 533 167 243 632 412 b 525 626 643 611 609 637 b 324 617 440 615 324 570 b 438 706 324 664 348 695 b 742 595 527 717 683 602 b 902 655 801 588 806 617 b 1243 599 998 693 1243 673 b 1015 602 1243 526 1172 555 b 828 526 859 649 837 575 b 875 437 823 498 829 466 b 1212 183 944 392 1245 303 z "},"":{"ha":1463,"x_min":0,"x_max":0,"o":"m 1075 599 b 1364 720 1161 652 1358 557 b 1009 881 1370 883 1120 905 b 892 704 899 857 973 687 b 754 879 816 720 903 898 b 659 785 673 869 756 701 b 361 726 512 912 340 938 b 659 551 381 514 657 604 b 350 116 664 405 395 71 b 397 259 306 161 397 196 b 285 377 397 322 377 380 b 102 257 173 373 112 316 b 304 -12 91 198 96 -8 b 712 557 512 -17 712 489 b 514 718 712 624 520 640 b 733 643 508 795 656 624 b 777 769 809 661 710 736 b 889 636 844 801 814 639 b 1097 808 991 632 945 810 b 1219 728 1152 807 1207 814 b 983 669 1232 642 1050 744 b 1011 508 916 593 1038 598 b 865 422 989 431 881 522 b 1122 -45 848 322 979 -43 b 1252 161 1264 -47 1321 41 b 989 431 1183 281 813 394 b 1063 475 1039 442 1052 460 b 1075 600 1109 537 1016 563 z "},"":{"ha":1072,"x_min":0,"x_max":0,"o":"m 594 584 b 891 894 594 676 1061 725 b 423 630 750 1035 550 743 b 220 861 385 755 320 861 b 280 509 -19 861 146 509 b 382 551 309 509 344 526 b 432 267 432 435 468 297 b 195 401 348 200 320 520 b 354 98 44 256 394 165 b 117 131 323 46 144 316 b 246 -7 117 131 95 -7 b 445 62 398 -7 445 -11 b 249 303 445 136 201 255 b 447 227 297 351 377 186 b 434 590 475 244 476 425 b 722 807 557 689 689 840 b 519 573 769 759 519 667 b 804 427 519 479 804 522 b 516 457 804 332 589 529 b 666 114 444 384 546 123 b 786 223 753 106 803 156 b 556 401 757 341 498 342 b 965 381 615 460 884 140 b 594 584 1045 622 594 493 z m 356 589 b 260 720 246 571 202 689 b 364 591 283 733 326 672 b 356 589 361 590 358 589 z "},"":{"ha":1281,"x_min":0,"x_max":0,"o":"m 491 146 b 320 382 285 182 160 267 b 461 549 426 458 460 504 b 297 723 462 627 265 654 b 547 657 330 791 486 622 b 585 805 607 692 532 805 b 655 680 637 805 588 712 b 825 725 684 667 759 720 b 1035 519 924 733 870 496 b 1074 843 1182 540 1258 740 b 682 758 887 948 735 732 b 597 972 646 775 763 960 b 486 750 405 986 537 784 b 129 831 421 707 304 1104 b 378 536 -7 619 358 603 b 216 230 397 469 152 393 b 1160 206 295 28 1216 -176 b 491 146 1115 513 710 108 z "},"":{"ha":1492,"x_min":0,"x_max":0,"o":"m 1390 596 b 1097 902 1376 701 1243 925 b 1017 668 950 878 1083 678 b 896 857 952 659 987 878 b 842 755 805 836 898 762 b 674 846 786 748 765 904 b 532 522 584 787 602 522 b 395 783 462 522 574 783 b 99 508 215 783 99 622 b 257 392 99 393 170 359 b 409 603 387 442 346 603 b 514 392 472 603 404 392 b 705 800 623 392 631 800 b 798 501 778 800 866 696 b 675 -16 730 305 443 37 b 889 149 770 -38 889 30 b 903 773 889 267 845 773 b 1006 515 961 773 917 515 b 1134 703 1094 515 1076 703 b 1120 459 1192 703 1113 529 b 1281 330 1127 389 1191 302 b 1390 596 1372 358 1404 491 z "},"":{"ha":1394,"x_min":0,"x_max":0,"o":"m 1235 818 b 908 851 1172 882 1011 954 b 921 565 805 748 964 605 b 845 549 878 524 885 623 b 738 431 804 476 751 361 b 699 600 726 501 749 575 b 555 478 649 625 572 453 b 672 816 538 504 727 712 b 395 847 626 903 503 926 b 201 549 303 780 212 666 b 335 425 194 486 254 415 b 555 818 532 451 412 791 b 596 656 655 838 649 745 b 502 382 543 567 426 458 b 665 468 578 306 623 510 b 736 265 707 426 609 265 b 946 516 863 265 888 516 b 883 118 1005 516 956 138 b 685 227 809 98 771 235 b 384 37 599 220 419 3 b 523 291 350 72 523 199 b 188 306 523 382 292 428 b 127 83 109 213 67 142 b 354 170 187 23 314 49 b 461 273 395 292 449 295 b 344 -41 496 209 250 22 b 613 81 457 -117 532 81 b 804 -6 694 81 720 -6 b 972 580 888 -6 1082 240 b 1068 598 875 880 1068 729 b 1258 537 1068 466 1195 473 b 1235 818 1322 600 1299 754 z "},"":{"ha":1413,"x_min":0,"x_max":0,"o":"m 1053 704 b 978 521 914 664 1049 506 b 866 838 859 546 1017 789 b 762 724 803 859 739 791 b 733 557 784 657 768 559 b 735 661 698 555 709 571 b 684 759 762 751 730 766 b 645 640 609 747 621 698 b 588 565 670 583 635 539 b 527 824 541 592 647 858 b 394 521 394 787 425 521 b 276 734 359 521 429 735 b 100 482 190 734 104 633 b 294 139 98 423 80 137 b 619 418 509 141 537 496 b 529 116 700 341 529 202 b 672 -37 529 30 586 -37 b 792 145 757 -37 800 51 b 725 400 784 239 682 347 b 1076 173 768 453 913 173 b 1310 500 1239 173 1282 302 b 1053 704 1339 698 1158 734 z m 517 490 b 334 277 481 479 469 310 b 164 430 199 244 180 339 b 246 624 148 522 172 624 b 341 408 319 624 252 422 b 511 704 513 381 458 687 b 544 570 554 717 503 624 b 516 489 575 528 584 510 z m 955 365 b 846 475 877 400 905 451 b 802 595 801 494 779 549 b 844 735 829 647 770 734 b 992 430 892 736 822 423 b 1096 575 1052 433 1091 468 b 1243 514 1100 651 1238 610 b 955 365 1248 417 1199 257 z "},"":{"ha":1483,"x_min":0,"x_max":0,"o":"m 1265 606 b 692 441 1168 624 918 548 b 1133 641 928 763 1032 717 b 1242 935 1261 546 1564 935 b 757 669 1040 935 877 811 b 635 770 733 716 719 771 b 271 579 510 769 330 519 b 491 812 213 640 474 735 b 299 983 507 889 444 1018 b 218 444 115 938 -1 444 b 619 721 437 444 526 689 b 731 637 672 740 709 686 b 565 375 658 545 602 448 b 279 37 367 264 221 134 b 643 135 363 -103 537 37 b 821 291 696 185 758 239 b 1018 -22 847 180 904 -2 b 1279 201 1144 -45 1212 83 b 1265 606 1362 345 1473 569 z m 1063 292 b 946 386 997 287 963 339 b 1205 471 1065 470 1168 519 b 1063 292 1258 401 1182 301 z "},"":{"ha":1238,"x_min":0,"x_max":0,"o":"m 752 145 b 1109 835 620 192 1287 724 b 721 431 846 1000 797 649 b 313 140 646 214 371 45 b 619 426 252 238 631 289 b 451 483 608 562 461 426 b 609 869 433 578 829 743 b 263 599 480 943 306 547 b 375 752 220 650 332 645 b 263 881 418 859 343 894 b 258 533 -15 838 113 545 b 592 745 402 521 532 810 b 321 431 652 680 273 540 b 578 414 365 334 546 450 b 335 316 611 378 504 362 b 327 -12 166 269 2 -7 b 933 695 651 -17 839 746 b 667 68 1028 644 540 169 b 977 193 758 -5 948 259 b 690 -55 1005 128 740 45 b 832 -195 663 -110 690 -203 b 1068 211 974 -186 1111 55 b 752 145 1025 366 844 113 z "},"":{"ha":1050,"x_min":0,"x_max":0,"o":"m 945 348 b 830 441 909 432 881 457 b 680 348 778 426 714 320 b 685 594 645 376 624 524 b 909 869 745 665 1011 722 b 640 805 807 1015 664 946 b 607 470 616 663 654 498 b 368 386 561 441 388 351 b 592 598 347 420 628 513 b 349 627 556 682 371 581 b 592 805 326 674 588 703 b 228 974 595 907 323 982 b 99 817 133 965 100 881 b 275 708 96 724 185 674 b 452 781 364 743 435 831 b 216 569 469 731 149 674 b 430 560 283 463 416 631 b 295 331 443 489 164 419 b 611 403 426 243 564 455 b 674 303 657 351 627 313 b 757 315 720 292 756 365 b 513 86 759 265 475 243 b 775 44 550 -71 711 0 b 945 348 838 89 981 263 z "},"":{"ha":1672,"x_min":0,"x_max":0,"o":"m 1249 967 b 1190 535 1102 925 1105 774 b 975 153 1281 278 1036 -4 b 977 750 890 374 1243 667 b 620 112 740 823 851 108 b 608 360 531 113 702 343 b 372 91 463 386 434 44 b 594 717 310 137 589 593 b 292 910 599 841 418 941 b 274 479 166 879 -62 448 b 494 716 403 491 379 726 b 303 212 610 706 391 374 b 353 -7 215 50 268 -15 b 537 179 434 0 479 211 b 598 -7 586 152 452 -7 b 932 601 820 -7 816 601 b 849 132 1047 601 849 265 b 1070 -7 849 0 980 -38 b 1295 339 1160 24 1307 177 b 1212 718 1275 617 1147 636 b 1392 631 1260 777 1278 658 b 1574 783 1506 603 1574 687 b 1249 967 1574 880 1467 1028 z "},"":{"ha":1381,"x_min":0,"x_max":0,"o":"m 1229 235 b 950 127 1133 292 995 82 b 1257 694 905 172 1257 568 b 984 856 1257 820 1103 916 b 879 468 866 796 914 503 b 705 688 782 375 838 763 b 679 137 572 612 821 192 b 444 366 600 106 551 431 b 326 58 337 300 441 49 b 350 353 207 67 224 215 b 548 799 476 491 602 708 b 190 782 495 891 307 887 b 176 447 72 677 69 539 b 398 603 259 376 400 496 b 471 730 397 710 421 780 b 345 387 521 680 469 536 b 300 -13 221 239 59 25 b 517 222 541 -51 453 222 b 733 -5 581 222 560 -72 b 764 427 905 62 676 427 b 873 352 852 427 792 334 b 1052 727 958 370 917 792 b 876 61 1186 661 781 141 b 1097 141 971 -18 1059 206 b 940 -113 1134 75 864 1 b 1211 -118 1016 -227 1151 -199 b 1229 235 1271 -37 1326 179 z "},"":{"ha":1104,"x_min":0,"x_max":0,"o":"m 762 501 b 633 113 566 402 838 178 b 606 395 504 72 756 334 b 424 290 494 441 459 247 b 766 787 334 403 861 593 b 532 746 694 932 597 717 b 483 1008 467 774 726 964 b 107 777 285 1043 138 890 b 278 557 76 663 131 543 b 466 816 438 573 376 849 b 466 640 527 793 388 697 b 731 727 543 583 707 816 b 399 426 755 637 519 534 b 347 227 316 352 282 281 b 531 261 454 137 491 319 b 486 33 570 202 405 149 b 779 -23 567 -82 671 -51 b 1005 256 888 4 1003 127 b 762 501 1007 409 917 578 z "},"":{"ha":1313,"x_min":0,"x_max":0,"o":"m 584 459 b 436 247 455 477 432 396 b 334 118 439 117 409 119 b 312 287 251 117 250 216 b 419 442 374 358 448 396 b 255 416 389 489 269 389 b 525 739 241 444 522 608 b 293 892 529 870 415 928 b 248 580 170 856 -50 640 b 432 728 348 560 365 787 b 213 485 500 670 268 532 b 175 335 158 439 129 371 b 344 392 222 299 320 430 b 196 66 368 354 141 228 b 675 156 251 -96 587 -15 b 584 459 763 327 713 442 z m 1212 525 b 978 595 1188 628 1090 652 b 781 591 900 555 800 524 b 1093 910 924 668 1112 822 b 878 956 1071 1016 954 1041 b 746 675 834 906 767 781 b 538 601 634 683 529 721 b 702 555 541 555 564 508 b 745 573 715 560 730 566 b 799 510 753 544 769 521 b 1000 502 938 456 1004 579 b 768 304 997 425 719 379 b 902 283 816 229 916 355 b 723 103 888 211 725 197 b 1031 49 720 -47 919 -109 b 1095 343 1143 208 1194 304 b 826 317 995 383 840 286 b 1212 525 812 348 1236 422 z m 809 740 b 1009 845 907 982 1031 902 b 883 695 986 788 945 725 b 786 674 853 680 820 675 b 809 740 791 693 799 715 z "},"":{"ha":919,"x_min":0,"x_max":0,"o":"m 593 494 b 551 235 474 440 468 296 b 362 116 671 147 445 110 b 339 285 279 121 277 214 b 446 440 401 355 476 393 b 342 496 417 486 356 468 b 553 736 328 523 550 605 b 340 910 557 867 468 913 b 216 620 213 907 -56 756 b 433 716 307 575 383 790 b 289 518 483 642 344 565 b 372 390 234 472 348 428 b 224 64 396 352 169 226 b 788 144 279 -98 700 -26 b 593 494 876 315 776 577 z "},"":{"ha":1158,"x_min":0,"x_max":0,"o":"m 1058 516 b 576 546 1022 646 591 496 b 942 720 560 596 892 677 b 895 922 1023 789 1022 870 b 462 949 767 974 638 982 b 102 729 286 917 148 901 b 309 613 77 636 202 574 b 700 794 416 653 597 777 b 762 699 822 814 854 752 b 478 539 671 646 455 629 b 992 527 500 449 992 575 b 562 380 992 478 626 482 b 740 187 498 279 802 256 b 407 239 678 118 379 152 b 488 430 436 330 516 311 b 190 465 465 530 259 587 b 252 93 139 376 119 179 b 785 45 388 4 626 -50 b 826 304 943 140 921 247 b 643 360 731 360 647 305 b 1058 516 640 415 1094 387 z "},"":{"ha":1532,"x_min":0,"x_max":0,"o":"m 1373 343 b 1198 384 1299 379 1203 331 b 1411 727 1192 438 1509 567 b 1208 660 1314 887 1256 612 b 972 970 1160 708 1168 986 b 761 696 775 955 705 844 b 815 482 818 548 891 500 b 681 459 739 463 657 386 b 663 579 716 565 692 563 b 436 455 561 633 481 427 b 675 863 391 483 777 758 b 156 763 574 969 234 855 b 280 526 41 627 106 486 b 612 830 386 550 542 903 b 348 424 680 758 313 513 b 620 472 382 334 603 536 b 270 206 637 408 274 412 b 510 1 268 87 377 -42 b 560 217 642 44 648 172 b 612 368 472 262 532 408 b 829 439 691 329 787 501 b 705 139 870 377 670 250 b 890 48 739 29 835 11 b 967 225 945 85 913 270 b 1291 56 1020 181 1096 25 b 1373 343 1486 88 1448 306 z m 1176 146 b 959 399 1010 152 1032 364 b 765 196 886 435 824 138 b 972 503 706 253 935 441 b 937 857 1010 565 846 828 b 1128 535 1028 887 1046 575 b 1334 670 1212 496 1285 757 b 1050 383 1383 583 1059 470 b 1314 259 1040 296 1290 334 b 1176 146 1337 184 1259 143 z "},"":{"ha":1249,"x_min":0,"x_max":0,"o":"m 821 260 b 1135 527 845 347 1155 371 b 860 501 1115 683 933 452 b 862 879 787 551 1113 762 b 460 381 585 1008 371 486 b 647 436 548 276 595 472 b 341 55 744 369 440 70 b 335 154 282 46 262 44 b 221 333 408 264 323 381 b 221 -2 118 286 7 44 b 714 473 434 -48 765 387 b 523 473 631 612 582 412 b 766 697 463 533 671 732 b 795 395 860 661 702 448 b 1074 473 887 341 1008 585 b 671 201 1111 408 671 320 b 957 -54 671 83 791 -46 b 1149 53 1123 -62 1138 -27 b 821 260 1180 300 797 173 z "},"":{"ha":1058,"x_min":0,"x_max":0,"o":"m 410 773 b 785 615 522 765 710 626 b 960 733 859 605 960 618 b 781 865 960 809 887 865 b 136 627 271 865 132 729 b 280 549 140 525 280 586 b 99 367 280 513 99 480 b 297 319 99 254 278 385 b 163 89 316 253 176 261 b 655 46 154 -17 410 -73 b 902 341 788 111 902 219 b 625 309 902 462 709 459 b 256 138 504 91 255 31 b 499 441 258 294 504 302 b 205 424 496 536 205 362 b 410 590 205 485 410 517 b 224 667 410 662 224 600 b 410 773 224 733 297 782 z m 308 842 b 415 968 378 857 462 914 b 286 992 369 1023 315 1075 b 302 907 257 910 351 901 b 245 994 272 912 233 974 b 301 1057 252 1006 270 1036 b 293 1077 312 1064 305 1080 b 205 990 256 1069 219 1046 b 308 842 175 869 237 827 z m 642 892 b 789 970 713 880 812 902 b 678 1040 766 1038 736 1106 b 661 955 620 974 704 931 b 640 1056 635 970 622 1043 b 716 1094 651 1065 679 1086 b 715 1116 728 1097 728 1114 b 601 1068 679 1122 635 1115 b 642 892 529 967 571 904 z "},"":{"ha":1428,"x_min":0,"x_max":0,"o":"m 1314 410 b 750 482 1414 515 991 492 b 157 499 598 475 333 489 b 117 478 106 502 78 487 b 1314 410 647 355 1223 314 z "},"":{"ha":1863,"x_min":0,"x_max":0,"o":"m 1744 388 b 979 465 1878 492 1305 473 b 178 488 774 460 415 476 b 124 467 109 491 70 476 b 1744 388 842 339 1621 293 z "},"":{"ha":381,"x_min":0,"x_max":0,"o":"m 148 1083 b 175 931 44 1047 129 974 b 253 803 205 904 235 844 b 278 806 259 791 276 793 b 148 1083 299 978 244 1116 z "},"":{"ha":1483,"x_min":0,"x_max":0,"o":"m 1120 465 b 1361 692 1120 522 1450 533 b 1055 661 1272 852 1091 603 b 1089 931 1018 719 1267 839 b 688 509 911 1023 582 615 b 843 582 794 403 801 624 b 730 321 860 565 806 445 b 481 614 613 447 512 573 b 283 673 446 659 358 759 b 313 499 236 619 240 513 b 692 260 418 478 554 373 b 431 40 593 110 475 -24 b 515 323 347 165 637 201 b 99 170 393 445 99 370 b 222 27 99 90 127 27 b 368 218 316 27 324 262 b 400 -10 412 175 297 95 b 735 225 486 -98 638 70 b 1186 -41 908 83 1078 -57 b 1281 116 1300 -24 1324 42 b 1094 305 1225 210 1057 268 b 1385 362 1131 341 1385 197 b 1120 465 1385 527 1120 407 z m 1214 378 b 1018 365 1173 302 1068 446 b 1188 72 968 284 1227 146 b 768 282 1128 -45 938 107 b 871 619 828 387 943 548 b 759 569 799 691 793 517 b 1021 823 725 622 959 885 b 950 577 1082 762 883 644 b 1233 637 1017 510 1233 737 b 1010 477 1233 538 1010 563 b 1215 378 1010 391 1256 454 z "},"":{"ha":1240,"x_min":0,"x_max":0,"o":"m 994 363 b 972 383 987 371 979 377 b 1030 737 1156 507 1170 668 b 442 535 907 798 644 670 b 480 729 458 591 472 642 b 313 891 490 827 411 912 b 315 483 99 844 234 633 b 329 453 321 474 325 464 b 250 389 299 431 273 409 b 150 -51 75 231 66 29 b 390 246 235 -130 363 -32 b 427 478 401 355 414 423 b 951 495 571 585 978 683 b 922 417 947 465 937 439 b 451 324 731 519 466 400 b 829 310 435 237 516 187 b 938 362 869 326 906 343 b 960 342 945 356 953 349 b 823 -7 1135 178 942 -22 b 800 -1 814 -6 807 -4 b 888 267 904 86 942 232 b 708 170 815 315 726 225 b 757 -4 697 137 700 53 b 595 134 695 -29 644 72 b 415 121 554 185 475 207 b 657 -65 355 35 452 -90 b 775 -20 702 -60 741 -43 b 961 -62 814 -51 874 -70 b 994 363 1211 -39 1181 175 z m 222 141 b 342 406 151 183 233 305 b 222 141 370 264 297 98 z m 617 341 b 899 389 600 403 745 485 b 617 341 808 295 632 284 z m 779 10 b 798 180 717 55 754 173 b 793 24 850 187 872 117 b 779 10 788 19 783 14 z "},"":{"ha":1308,"x_min":0,"x_max":0,"o":"m 838 952 b 654 856 712 973 671 950 b 850 677 637 763 899 722 b 438 844 801 632 624 859 b 122 673 300 833 110 767 b 304 618 134 579 293 665 b 24 375 314 571 -45 516 b 308 391 94 234 274 441 b 187 34 342 342 42 180 b 495 242 333 -112 428 265 b 671 8 563 220 500 -36 b 754 318 889 64 675 261 b 1097 8 834 375 958 8 b 1293 208 1236 8 1293 118 b 1083 253 1293 297 1154 334 b 899 314 1011 171 989 170 b 614 487 813 453 730 583 b 659 124 535 422 750 171 b 493 406 567 77 567 404 b 291 177 420 408 371 136 b 432 493 212 218 516 420 b 173 428 354 562 225 376 b 463 671 121 480 483 583 b 198 695 442 758 236 656 b 436 797 159 734 258 779 b 869 573 601 814 708 583 b 1016 707 954 567 1016 622 b 838 952 1016 792 931 937 z "},"":{"ha":1410,"x_min":0,"x_max":0,"o":"m 1231 646 b 994 801 1236 730 1154 801 b 675 775 834 801 814 758 b 276 834 501 795 402 871 b 44 371 40 765 27 526 b 278 -8 59 244 49 59 b 629 162 536 -84 535 164 b 862 -17 727 159 750 -58 b 979 102 975 24 888 180 b 1311 151 1102 -2 1320 -109 b 951 416 1305 348 1115 441 b 635 521 787 391 776 557 b 691 264 493 484 500 281 b 1184 309 881 248 1104 400 b 1067 147 1264 219 1215 40 b 901 203 996 199 983 252 b 817 51 819 154 899 33 b 672 221 735 69 770 194 b 344 190 573 248 448 151 b 147 551 202 243 122 332 b 287 777 159 664 233 765 b 657 666 397 801 549 710 b 1231 646 804 607 1213 297 z "},"":{"ha":1626,"x_min":0,"x_max":0,"o":"m 65 317 b 293 43 65 96 192 41 b 716 817 498 47 598 820 b 734 266 801 814 577 279 b 944 618 925 250 821 613 b 942 284 1057 623 818 296 b 1292 768 1079 270 1216 768 b 1027 228 1368 768 1047 342 b 1207 -11 1006 119 1015 -11 b 1562 293 1399 -11 1562 123 b 1127 228 1562 462 1178 177 b 1334 886 1076 279 1482 886 b 1056 538 1187 886 1120 538 b 981 886 991 538 1126 886 b 792 489 836 886 855 490 b 731 912 686 487 888 901 b 500 451 611 921 576 643 b 337 139 433 281 380 132 b 282 562 228 157 558 507 b 65 317 170 584 65 445 z "},"":{"ha":1154,"x_min":0,"x_max":0,"o":"m 106 216 b 336 -11 65 122 212 -11 b 546 200 460 -11 550 118 b 299 752 533 435 239 710 b 468 552 359 793 356 552 b 605 768 581 552 560 813 b 573 381 651 723 453 442 b 891 729 727 303 818 802 b 605 173 963 656 605 327 b 802 24 605 18 726 24 b 1046 284 878 24 1046 158 b 830 341 1046 410 929 415 b 722 89 760 289 802 89 b 678 247 641 89 630 171 b 1060 729 726 323 1053 568 b 838 803 1067 871 881 837 b 670 600 765 747 722 550 b 633 885 639 630 817 885 b 475 611 449 885 528 611 b 275 947 422 611 439 997 b 304 616 110 897 200 735 b 441 195 408 497 538 257 b 106 216 367 149 225 492 z "},"":{"ha":1269,"x_min":0,"x_max":0,"o":"m 1033 641 b 915 633 957 611 922 597 b 1093 796 908 669 1097 697 b 915 915 1089 894 1025 936 b 569 629 821 898 627 629 b 348 804 510 629 496 804 b 90 544 199 804 90 685 b 398 333 90 404 241 333 b 639 354 555 333 613 400 b 438 141 665 307 426 319 b 620 -23 447 5 556 -23 b 880 217 769 -23 880 121 b 894 374 880 314 831 342 b 1047 283 930 392 933 269 b 1218 504 1162 297 1218 398 b 1033 641 1218 611 1109 671 z m 828 461 b 780 313 779 425 792 408 b 571 183 761 174 571 98 b 710 352 571 245 726 246 b 257 504 685 513 388 297 b 364 667 226 554 273 667 b 533 539 454 667 444 539 b 912 828 621 539 851 889 b 817 587 974 767 743 661 b 1063 476 891 513 1063 587 b 828 461 1063 366 908 518 z "},"":{"ha":1150,"x_min":0,"x_max":0,"o":"m 168 408 b 311 537 267 370 311 472 b 380 808 311 603 333 808 b 380 528 427 808 307 592 b 593 726 452 465 535 756 b 464 488 652 695 511 526 b 462 338 417 450 398 368 b 619 396 525 307 582 432 b 365 70 657 361 356 176 b 635 95 375 -36 557 -81 b 751 427 712 271 774 352 b 631 474 727 502 683 502 b 502 397 579 446 530 365 b 610 561 474 429 563 577 b 737 603 657 544 689 520 b 842 780 805 723 785 814 b 791 587 925 731 794 711 b 996 512 789 509 894 450 b 960 866 1153 609 1066 831 b 727 770 854 902 736 893 b 657 613 721 685 685 591 b 615 808 629 634 727 770 b 446 614 559 826 488 606 b 375 921 403 621 528 932 b 168 408 222 909 -93 509 z "},"":{"ha":1149,"x_min":0,"x_max":0,"o":"m 165 316 b 349 581 255 261 349 478 b 400 821 349 684 339 821 b 357 446 460 821 408 574 b 222 18 306 315 68 114 b 420 185 375 -79 363 209 b 577 -2 476 161 422 -2 b 761 203 733 -2 773 110 b 624 455 749 296 584 380 b 862 516 664 530 823 441 b 707 702 917 621 769 629 b 878 848 644 775 806 876 b 888 383 951 819 947 520 b 933 -17 830 246 724 -17 b 1014 506 1141 -17 1008 267 b 832 926 1020 745 1016 926 b 650 646 648 926 544 693 b 662 524 741 605 764 555 b 577 455 632 515 604 523 b 606 92 551 386 761 92 b 489 373 450 92 598 327 b 359 252 379 419 410 201 b 410 886 309 302 634 890 b 208 650 287 884 315 763 b 165 316 85 520 -28 436 z "},"":{"ha":1171,"x_min":0,"x_max":0,"o":"m 150 500 b 318 622 208 495 283 517 b 460 761 353 727 390 803 b 314 451 530 719 211 552 b 570 561 416 351 507 621 b 421 328 624 510 363 412 b 628 349 507 204 621 433 b 516 158 635 265 556 127 b 456 274 477 188 561 269 b 293 160 351 279 356 190 b 150 251 244 137 246 251 b 36 95 55 251 36 146 b 258 8 36 -15 168 -81 b 442 221 347 98 395 221 b 472 25 488 221 367 25 b 701 400 577 25 647 235 b 896 754 754 566 796 786 b 743 337 1015 717 743 449 b 985 223 743 225 878 172 b 1095 458 1064 260 1158 353 b 861 346 1019 584 906 451 b 800 395 805 213 742 312 b 992 871 867 492 1175 718 b 689 489 811 1023 719 561 b 484 356 659 416 495 295 b 684 573 472 416 694 486 b 561 643 675 659 605 665 b 386 528 501 613 421 493 b 544 766 351 563 542 682 b 372 883 546 845 481 890 b 50 631 246 875 50 759 b 150 500 50 559 69 507 z "},"":{"ha":1483,"x_min":0,"x_max":0,"o":"m 1120 465 b 1361 692 1120 522 1450 533 b 1055 661 1272 852 1091 603 b 1089 931 1018 719 1267 839 b 688 509 911 1023 582 615 b 843 582 794 403 801 624 b 730 321 860 565 806 445 b 481 614 613 447 512 573 b 283 673 446 659 358 759 b 313 499 236 619 240 513 b 692 260 418 478 554 373 b 431 40 593 110 475 -24 b 515 323 347 165 637 201 b 99 170 393 445 99 370 b 222 27 99 90 127 27 b 368 218 316 27 324 262 b 400 -10 412 175 297 95 b 735 225 486 -98 638 70 b 1186 -41 908 83 1078 -57 b 1281 116 1300 -24 1324 42 b 1094 305 1225 210 1057 268 b 1385 362 1131 341 1385 197 b 1120 465 1385 527 1120 407 z m 1214 378 b 1018 365 1173 302 1068 446 b 1188 72 968 284 1227 146 b 768 282 1128 -45 938 107 b 871 619 828 387 943 548 b 759 569 799 691 793 517 b 1021 823 725 622 959 885 b 950 577 1082 762 883 644 b 1233 637 1017 510 1233 737 b 1010 477 1233 538 1010 563 b 1215 378 1010 391 1256 454 z "},"":{"ha":1133,"x_min":0,"x_max":0,"o":"m 994 404 b 972 424 987 411 979 417 b 1030 777 1156 547 1170 708 b 442 575 907 838 644 710 b 480 770 458 632 472 682 b 313 931 490 867 411 952 b 315 523 99 884 234 673 b 329 494 321 514 325 504 b 250 429 299 471 273 449 b 150 -10 75 272 66 70 b 390 287 235 -90 363 9 b 427 518 401 395 414 463 b 951 535 571 625 978 723 b 922 457 947 505 937 480 b 451 364 731 559 466 440 b 829 350 435 278 516 227 b 938 402 869 366 906 384 b 960 382 945 396 953 390 b 823 34 1135 218 942 18 b 800 39 814 35 807 37 b 888 307 904 126 942 272 b 708 210 815 356 726 266 b 757 36 697 177 700 94 b 595 175 695 12 644 113 b 415 161 554 225 475 248 b 657 -25 355 75 452 -50 b 775 20 702 -19 741 -3 b 961 -21 814 -10 874 -29 b 994 404 1211 1 1181 215 z m 222 182 b 342 447 151 223 233 345 b 222 182 370 304 297 138 z m 617 381 b 899 430 600 443 745 525 b 617 381 808 335 632 324 z m 779 50 b 798 220 717 96 754 214 b 793 65 850 227 872 157 b 779 50 788 59 783 54 z "},"":{"ha":1408,"x_min":0,"x_max":0,"o":"m 898 931 b 714 836 771 952 731 929 b 910 656 697 742 959 701 b 498 823 861 611 684 838 b 182 652 360 812 170 746 b 363 597 194 558 353 644 b 84 354 374 550 15 495 b 367 370 153 213 333 420 b 247 13 401 321 101 159 b 555 222 393 -132 488 244 b 731 -13 622 199 560 -57 b 814 297 949 43 735 240 b 1157 -13 894 354 1018 -13 b 1353 187 1296 -13 1353 97 b 1143 232 1353 277 1214 313 b 959 293 1071 150 1049 149 b 673 466 872 432 790 563 b 718 103 595 401 810 150 b 553 385 627 56 627 383 b 351 156 480 387 431 115 b 492 472 272 197 575 399 b 233 407 414 541 285 355 b 522 650 181 459 543 562 b 257 674 502 738 296 636 b 496 776 219 713 317 758 b 928 552 661 794 767 563 b 1075 686 1014 546 1075 601 b 898 931 1075 772 990 916 z "},"":{"ha":1389,"x_min":0,"x_max":0,"o":"m 1251 666 b 1013 822 1255 750 1173 822 b 695 796 853 822 833 779 b 295 855 520 816 421 892 b 64 392 59 786 46 547 b 297 12 78 265 68 80 b 648 183 556 -64 554 185 b 882 4 746 180 769 -37 b 999 123 995 45 907 201 b 1331 172 1122 18 1339 -88 b 970 437 1325 369 1134 462 b 654 541 806 412 796 578 b 710 285 513 504 520 301 b 1204 330 900 269 1124 420 b 1087 167 1284 240 1234 61 b 920 224 1015 219 1002 273 b 837 72 838 174 919 53 b 691 242 755 90 790 215 b 363 211 593 269 468 172 b 166 572 222 264 142 353 b 306 798 179 684 252 786 b 677 687 416 822 568 731 b 1251 666 824 628 1232 318 z "},"":{"ha":1642,"x_min":0,"x_max":0,"o":"m 46 257 b 273 -17 46 37 173 -19 b 696 757 479 -12 578 760 b 715 206 781 755 557 219 b 925 558 906 190 802 554 b 922 224 1038 563 798 237 b 1273 708 1060 210 1197 708 b 1007 168 1348 708 1028 282 b 1188 -70 987 59 996 -70 b 1542 233 1380 -70 1542 64 b 1107 168 1542 402 1159 117 b 1315 826 1056 219 1462 826 b 1036 478 1168 826 1101 478 b 962 826 971 478 1107 826 b 773 429 817 826 835 430 b 712 853 667 427 869 842 b 481 391 591 861 557 584 b 318 79 413 221 360 72 b 262 502 209 97 539 447 b 46 257 151 524 46 386 z "},"":{"ha":1158,"x_min":0,"x_max":0,"o":"m 106 215 b 336 -12 65 120 212 -12 b 546 199 460 -12 550 117 b 299 750 533 434 239 708 b 468 550 359 792 356 550 b 605 766 581 550 560 811 b 573 380 651 721 453 441 b 891 728 727 302 818 800 b 605 171 963 655 605 326 b 802 23 605 17 726 23 b 1046 283 878 23 1046 157 b 830 339 1046 408 929 414 b 722 87 760 287 802 87 b 678 245 641 87 630 170 b 1060 728 726 321 1053 567 b 838 802 1067 869 881 836 b 670 599 765 745 722 549 b 633 884 639 629 817 884 b 475 610 449 884 528 610 b 275 945 422 610 439 995 b 304 615 110 895 200 734 b 441 194 408 496 538 255 b 106 215 367 147 225 491 z "},"":{"ha":1317,"x_min":0,"x_max":0,"o":"m 1033 660 b 915 652 957 630 922 616 b 1093 815 908 689 1097 717 b 915 935 1089 914 1025 956 b 569 648 821 917 627 648 b 348 823 510 648 496 823 b 90 564 199 823 90 705 b 398 353 90 423 241 353 b 639 373 555 353 613 419 b 438 160 665 327 426 339 b 620 -4 447 24 556 -4 b 880 237 769 -4 880 140 b 894 393 880 333 831 362 b 1047 303 930 411 933 289 b 1218 524 1162 317 1218 417 b 1033 660 1218 630 1109 691 z m 828 480 b 780 333 779 445 792 427 b 571 202 761 193 571 118 b 710 371 571 265 726 266 b 257 524 685 533 388 317 b 364 687 226 573 273 687 b 533 559 454 687 444 559 b 912 847 621 559 851 909 b 817 606 974 786 743 680 b 1063 496 891 532 1063 606 b 828 480 1063 385 908 538 z "},"":{"ha":1171,"x_min":0,"x_max":0,"o":"m 189 368 b 332 497 287 330 332 431 b 400 767 332 563 353 767 b 400 488 447 767 328 551 b 614 685 473 424 555 716 b 485 448 673 655 532 485 b 483 297 438 410 419 328 b 640 356 546 267 602 391 b 386 29 678 321 377 135 b 656 55 396 -76 578 -122 b 772 387 733 231 795 311 b 652 434 748 462 704 462 b 523 357 600 405 551 324 b 631 521 494 389 584 537 b 758 563 678 504 710 480 b 863 740 826 683 806 774 b 812 547 946 691 815 671 b 1017 472 810 469 915 409 b 981 826 1174 568 1087 791 b 748 730 875 861 757 852 b 678 572 742 644 706 551 b 636 767 649 594 748 730 b 467 573 580 786 509 566 b 396 880 424 580 548 892 b 189 368 243 868 -72 469 z "},"":{"ha":1092,"x_min":0,"x_max":0,"o":"m 146 296 b 330 560 235 241 330 457 b 380 800 330 663 320 800 b 338 425 441 800 388 553 b 202 -3 286 294 49 94 b 400 164 356 -100 344 189 b 558 -23 457 140 402 -23 b 742 182 713 -23 754 90 b 604 434 730 275 564 359 b 843 496 645 509 804 421 b 687 681 897 601 750 609 b 859 827 625 754 786 855 b 869 362 932 798 928 500 b 913 -38 810 225 705 -38 b 994 485 1121 -38 988 246 b 812 906 1000 724 996 906 b 631 625 629 906 525 672 b 643 504 722 584 744 535 b 558 434 613 495 584 503 b 586 71 532 365 742 71 b 469 352 431 71 578 306 b 340 231 360 399 390 180 b 390 865 289 281 614 869 b 188 629 267 863 295 742 b 146 296 65 499 -48 415 z "},"":{"ha":1276,"x_min":0,"x_max":0,"o":"m 213 500 b 381 622 271 495 346 517 b 523 761 416 727 452 803 b 376 451 593 720 273 552 b 633 561 479 351 569 621 b 483 328 686 510 425 412 b 691 349 569 204 684 433 b 579 158 698 265 619 127 b 518 274 539 188 623 269 b 355 160 413 279 418 190 b 213 251 306 137 308 251 b 99 95 117 251 99 146 b 320 8 99 -15 230 -81 b 504 221 410 98 458 221 b 535 25 551 221 430 25 b 763 400 640 25 709 235 b 959 754 817 566 859 786 b 805 337 1078 717 805 449 b 1048 223 805 225 940 172 b 1157 458 1127 260 1220 353 b 924 346 1082 584 968 451 b 862 395 867 213 805 312 b 1055 871 930 492 1237 718 b 751 489 874 1023 782 561 b 546 356 721 416 558 295 b 747 573 535 416 756 486 b 623 643 737 659 667 665 b 448 528 564 613 483 493 b 607 766 413 563 605 682 b 434 883 609 845 544 890 b 113 631 309 875 113 759 b 213 500 113 559 131 507 z "},"":{"ha":1483,"x_min":0,"x_max":0,"o":"m 1120 490 b 1361 718 1120 547 1450 558 b 1055 686 1272 877 1091 629 b 1089 956 1018 744 1267 864 b 688 534 911 1048 582 640 b 843 608 794 428 801 650 b 730 347 860 590 806 471 b 481 639 613 472 512 599 b 283 698 446 684 358 784 b 313 524 236 645 240 538 b 692 286 418 504 554 398 b 431 65 593 135 475 1 b 515 348 347 190 637 227 b 99 195 393 470 99 395 b 222 52 99 115 127 52 b 368 244 316 52 324 287 b 400 16 412 200 297 120 b 735 250 486 -73 638 96 b 1186 -16 908 108 1078 -32 b 1281 141 1300 1 1324 67 b 1094 330 1225 235 1057 293 b 1385 388 1131 367 1385 223 b 1120 490 1385 553 1120 432 z m 1214 403 b 1018 390 1173 327 1068 471 b 1188 97 968 309 1227 171 b 768 307 1128 -20 938 132 b 871 644 828 412 943 573 b 759 595 799 716 793 542 b 1021 849 725 647 959 910 b 950 602 1082 787 883 669 b 1233 663 1017 536 1233 762 b 1010 502 1233 563 1010 588 b 1215 403 1010 416 1256 479 z "},"":{"ha":1240,"x_min":0,"x_max":0,"o":"m 994 431 b 972 451 987 438 979 445 b 1030 805 1156 575 1170 736 b 442 603 907 866 644 738 b 480 797 458 659 472 709 b 313 959 490 894 411 980 b 315 551 99 912 234 701 b 329 521 321 541 325 531 b 250 456 299 498 273 476 b 150 17 75 299 66 97 b 390 314 235 -63 363 36 b 427 545 401 423 414 491 b 951 562 571 652 978 750 b 922 485 947 533 937 507 b 451 392 731 587 466 468 b 829 378 435 305 516 254 b 938 430 869 393 906 411 b 960 410 945 424 953 417 b 823 61 1135 245 942 45 b 800 67 814 62 807 64 b 888 335 904 153 942 300 b 708 238 815 383 726 293 b 757 63 697 205 700 121 b 595 202 695 39 644 140 b 415 189 554 253 475 275 b 657 3 355 102 452 -22 b 775 47 702 8 741 25 b 961 6 814 17 874 -2 b 994 431 1211 29 1181 243 z m 222 209 b 342 474 151 250 233 372 b 222 209 370 331 297 166 z m 617 408 b 899 457 600 470 745 552 b 617 408 808 362 632 352 z m 779 78 b 798 247 717 123 754 241 b 793 92 850 255 872 185 b 779 78 788 86 783 82 z "},"":{"ha":1475,"x_min":0,"x_max":0,"o":"m 921 948 b 737 853 795 969 754 946 b 934 673 721 759 983 718 b 522 840 885 628 707 855 b 205 669 383 829 193 763 b 387 614 218 575 377 661 b 108 371 397 567 38 512 b 391 388 177 230 357 437 b 271 31 425 338 125 176 b 579 239 417 -115 511 261 b 754 4 646 216 584 -40 b 838 314 972 60 758 257 b 1180 4 917 371 1042 4 b 1376 204 1319 4 1376 114 b 1166 249 1376 294 1238 330 b 983 310 1095 167 1072 166 b 697 483 896 449 813 580 b 742 120 618 418 834 167 b 577 402 650 73 650 400 b 375 173 503 404 454 133 b 515 490 295 214 599 416 b 256 424 438 558 308 372 b 546 667 204 476 566 579 b 281 691 526 755 320 653 b 520 793 242 730 341 775 b 952 569 685 811 791 580 b 1099 703 1038 563 1099 618 b 921 949 1099 789 1014 934 z "},"":{"ha":1186,"x_min":0,"x_max":0,"o":"m 203 278 b 387 543 292 223 387 440 b 437 783 387 646 377 783 b 395 407 498 783 445 536 b 259 -21 343 277 106 76 b 457 147 413 -118 401 171 b 615 -41 514 123 459 -41 b 799 165 770 -41 811 72 b 661 416 787 258 621 342 b 900 478 702 491 861 403 b 744 664 954 583 807 591 b 916 809 682 737 843 838 b 926 345 988 781 984 482 b 970 -55 867 207 762 -55 b 1051 468 1178 -55 1045 229 b 869 888 1057 706 1053 888 b 688 607 686 888 582 654 b 700 486 779 567 801 517 b 615 416 670 477 641 485 b 643 54 589 348 799 54 b 526 335 488 54 635 288 b 397 213 417 381 447 163 b 447 848 346 264 671 851 b 245 611 324 846 352 724 b 203 278 122 481 9 397 z "},"":{"ha":1694,"x_min":0,"x_max":0,"o":"m 99 263 b 326 -11 99 42 226 -13 b 749 763 531 -7 631 766 b 768 212 834 761 610 225 b 977 564 959 196 855 559 b 975 230 1090 569 851 242 b 1325 714 1113 216 1249 714 b 1060 174 1401 714 1081 288 b 1241 -65 1040 65 1049 -65 b 1595 239 1432 -65 1595 69 b 1160 174 1595 408 1212 123 b 1368 832 1109 225 1515 832 b 1089 484 1220 832 1154 484 b 1015 832 1024 484 1160 832 b 826 435 870 832 888 436 b 765 858 720 433 922 847 b 534 397 644 867 610 589 b 371 85 466 227 413 78 b 315 508 261 103 592 453 b 99 263 203 530 99 391 z "},"":{"ha":1158,"x_min":0,"x_max":0,"o":"m 106 182 b 336 -45 65 87 212 -45 b 546 166 460 -45 550 84 b 299 717 533 401 239 676 b 468 517 359 759 356 517 b 605 734 581 517 560 779 b 573 347 651 688 453 408 b 891 695 727 269 818 767 b 605 139 963 622 605 293 b 802 -10 605 -16 726 -10 b 1046 250 878 -10 1046 124 b 830 307 1046 376 929 381 b 722 55 760 255 802 55 b 678 213 641 55 630 137 b 1060 695 726 289 1053 534 b 838 769 1067 837 881 803 b 670 566 765 713 722 516 b 633 851 639 596 817 851 b 475 577 449 851 528 577 b 275 913 422 577 439 963 b 304 582 110 863 200 701 b 441 161 408 463 538 223 b 106 182 367 114 225 458 z "},"":{"ha":1325,"x_min":0,"x_max":0,"o":"m 1041 628 b 924 620 965 598 931 584 b 1102 783 917 656 1106 685 b 924 903 1098 881 1034 923 b 577 616 830 885 635 616 b 356 791 519 616 505 791 b 99 532 207 791 99 672 b 406 321 99 391 249 321 b 647 341 563 321 621 387 b 446 128 673 294 434 306 b 629 -36 456 -8 564 -36 b 889 204 777 -36 889 108 b 903 361 889 301 840 329 b 1055 270 939 379 941 256 b 1226 491 1170 285 1226 385 b 1041 628 1226 598 1118 658 z m 837 448 b 788 301 787 413 801 395 b 579 170 769 161 579 86 b 718 339 579 232 734 234 b 265 491 694 500 396 285 b 372 655 234 541 281 655 b 541 527 462 655 453 527 b 921 815 629 527 859 876 b 825 574 982 754 751 648 b 1071 463 899 500 1071 574 b 837 448 1071 353 916 506 z "},"":{"ha":1211,"x_min":0,"x_max":0,"o":"m 199 436 b 342 565 297 398 342 499 b 410 835 342 631 363 835 b 410 556 457 835 337 619 b 624 753 483 492 565 784 b 495 516 683 722 542 553 b 492 365 448 478 429 396 b 650 424 556 335 612 459 b 396 97 687 389 387 203 b 665 122 405 -8 588 -54 b 781 454 743 299 805 379 b 662 501 758 530 713 530 b 532 424 610 473 560 392 b 640 588 504 457 593 605 b 767 631 687 572 720 547 b 873 808 836 750 816 842 b 821 614 956 759 825 738 b 1027 540 819 536 925 477 b 991 894 1184 636 1096 859 b 758 798 885 929 767 920 b 687 640 752 712 716 619 b 645 835 659 661 758 798 b 476 641 589 854 519 634 b 405 948 434 648 558 960 b 199 436 253 936 -62 537 z "},"":{"ha":1276,"x_min":0,"x_max":0,"o":"m 213 523 b 381 644 271 518 346 539 b 523 784 416 749 452 826 b 376 474 593 742 273 574 b 633 584 479 374 569 644 b 483 351 686 532 425 435 b 691 372 569 227 684 456 b 579 180 698 288 619 150 b 518 297 539 211 623 292 b 355 183 413 301 418 213 b 213 274 306 159 308 274 b 99 117 117 274 99 169 b 320 31 99 8 230 -59 b 504 243 410 121 458 243 b 535 47 551 243 430 47 b 763 423 640 47 709 257 b 959 777 817 588 859 809 b 805 360 1078 740 805 472 b 1048 245 805 248 940 195 b 1157 481 1127 283 1220 376 b 924 369 1082 606 968 474 b 862 417 867 236 805 335 b 1055 894 930 515 1237 740 b 751 511 874 1045 782 584 b 546 379 721 439 558 318 b 747 595 535 439 756 509 b 623 665 737 682 667 687 b 448 551 564 636 483 516 b 607 789 413 586 605 705 b 434 906 609 868 544 912 b 113 654 309 898 113 782 b 213 523 113 581 131 530 z "},"":{"ha":1483,"x_min":0,"x_max":0,"o":"m 1120 490 b 1361 718 1120 547 1450 558 b 1055 686 1272 877 1091 629 b 1089 956 1018 744 1267 864 b 688 534 911 1048 582 640 b 843 608 794 428 801 650 b 730 347 860 590 806 471 b 481 639 613 472 512 599 b 283 698 446 684 358 784 b 313 524 236 645 240 538 b 692 286 418 504 554 398 b 431 65 593 135 475 1 b 515 348 347 190 637 227 b 99 195 393 470 99 395 b 222 52 99 115 127 52 b 368 244 316 52 324 287 b 400 16 412 200 297 120 b 735 250 486 -73 638 96 b 1186 -16 908 108 1078 -32 b 1281 141 1300 1 1324 67 b 1094 330 1225 235 1057 293 b 1385 388 1131 367 1385 223 b 1120 490 1385 553 1120 432 z m 1214 403 b 1018 390 1173 327 1068 471 b 1188 97 968 309 1227 171 b 768 307 1128 -20 938 132 b 871 644 828 412 943 573 b 759 595 799 716 793 542 b 1021 849 725 647 959 910 b 950 602 1082 787 883 669 b 1233 663 1017 536 1233 762 b 1010 502 1233 563 1010 588 b 1215 403 1010 416 1256 479 z "},"":{"ha":1240,"x_min":0,"x_max":0,"o":"m 994 431 b 972 451 987 438 979 445 b 1030 805 1156 575 1170 736 b 442 603 907 866 644 738 b 480 797 458 659 472 709 b 313 959 490 894 411 980 b 315 551 99 912 234 701 b 329 521 321 541 325 531 b 250 456 299 498 273 476 b 150 17 75 299 66 97 b 390 314 235 -63 363 36 b 427 545 401 423 414 491 b 951 562 571 652 978 750 b 922 485 947 533 937 507 b 451 392 731 587 466 468 b 829 378 435 305 516 254 b 938 430 869 393 906 411 b 960 410 945 424 953 417 b 823 61 1135 245 942 45 b 800 67 814 62 807 64 b 888 335 904 153 942 300 b 708 238 815 383 726 293 b 757 63 697 205 700 121 b 595 202 695 39 644 140 b 415 189 554 253 475 275 b 657 3 355 102 452 -22 b 775 47 702 8 741 25 b 961 6 814 17 874 -2 b 994 431 1211 29 1181 243 z m 222 209 b 342 474 151 250 233 372 b 222 209 370 331 297 166 z m 617 408 b 899 457 600 470 745 552 b 617 408 808 362 632 352 z m 779 78 b 798 247 717 123 754 241 b 793 92 850 255 872 185 b 779 78 788 86 783 82 z "},"":{"ha":1475,"x_min":0,"x_max":0,"o":"m 921 948 b 737 853 795 969 754 946 b 934 673 721 759 983 718 b 522 840 885 628 707 855 b 205 669 383 829 193 763 b 387 614 218 575 377 661 b 108 371 397 567 38 512 b 391 388 177 230 357 437 b 271 31 425 338 125 176 b 579 239 417 -115 511 261 b 754 4 646 216 584 -40 b 838 314 972 60 758 257 b 1180 4 917 371 1042 4 b 1376 204 1319 4 1376 114 b 1166 249 1376 294 1238 330 b 983 310 1095 167 1072 166 b 697 483 896 449 813 580 b 742 120 618 418 834 167 b 577 402 650 73 650 400 b 375 173 503 404 454 133 b 515 490 295 214 599 416 b 256 424 438 558 308 372 b 546 667 204 476 566 579 b 281 691 526 755 320 653 b 520 793 242 730 341 775 b 952 569 685 811 791 580 b 1099 703 1038 563 1099 618 b 921 949 1099 789 1014 934 z "},"":{"ha":1186,"x_min":0,"x_max":0,"o":"m 203 298 b 387 562 292 243 387 459 b 437 802 387 665 377 802 b 395 427 498 802 445 555 b 259 -1 343 296 106 96 b 457 166 413 -98 401 190 b 615 -21 514 142 459 -21 b 799 184 770 -21 811 92 b 661 436 787 277 621 361 b 900 497 702 511 861 423 b 744 683 954 603 807 610 b 916 829 682 756 843 857 b 926 364 988 800 984 502 b 970 -36 867 227 762 -36 b 1051 487 1178 -36 1045 248 b 869 907 1057 726 1053 907 b 688 627 686 907 582 674 b 700 506 779 586 801 537 b 615 436 670 496 641 505 b 643 73 589 367 799 73 b 526 354 488 73 635 308 b 397 233 417 401 447 182 b 447 867 346 283 671 871 b 245 631 324 865 352 744 b 203 298 122 501 9 417 z "},"":{"ha":1694,"x_min":0,"x_max":0,"o":"m 99 263 b 326 -11 99 42 226 -13 b 749 763 531 -7 631 766 b 768 212 834 761 610 225 b 977 564 959 196 855 559 b 975 230 1090 569 851 242 b 1325 714 1113 216 1249 714 b 1060 174 1401 714 1081 288 b 1241 -65 1040 65 1049 -65 b 1595 239 1432 -65 1595 69 b 1160 174 1595 408 1212 123 b 1368 832 1109 225 1515 832 b 1089 484 1220 832 1154 484 b 1015 832 1024 484 1160 832 b 826 435 870 832 888 436 b 765 858 720 433 922 847 b 534 397 644 867 610 589 b 371 85 466 227 413 78 b 315 508 261 103 592 453 b 99 263 203 530 99 391 z "},"":{"ha":1158,"x_min":0,"x_max":0,"o":"m 106 163 b 336 -65 65 68 212 -65 b 546 147 460 -65 550 64 b 299 698 533 382 239 656 b 468 498 359 740 356 498 b 605 714 581 498 560 759 b 573 327 651 669 453 389 b 891 675 727 249 818 748 b 605 119 963 603 605 274 b 802 -29 605 -36 726 -29 b 1046 230 878 -29 1046 105 b 830 287 1046 356 929 361 b 722 35 760 235 802 35 b 678 193 641 35 630 118 b 1060 675 726 269 1053 514 b 838 750 1067 817 881 783 b 670 546 765 693 722 496 b 633 832 639 577 817 832 b 475 558 449 832 528 558 b 275 893 422 558 439 943 b 304 563 110 843 200 682 b 441 142 408 443 538 203 b 106 163 367 95 225 438 z "},"":{"ha":1325,"x_min":0,"x_max":0,"o":"m 1041 668 b 924 660 965 638 931 624 b 1102 823 917 697 1106 725 b 924 943 1098 922 1034 964 b 577 656 830 925 635 656 b 356 831 519 656 505 831 b 99 572 207 831 99 713 b 406 361 99 431 249 361 b 647 381 563 361 621 427 b 446 168 673 335 434 347 b 629 4 456 33 564 4 b 889 245 777 4 889 148 b 903 401 889 341 840 370 b 1055 311 939 419 941 297 b 1226 532 1170 325 1226 425 b 1041 668 1226 638 1118 699 z m 837 489 b 788 341 787 453 801 435 b 579 210 769 201 579 126 b 718 379 579 273 734 274 b 265 532 694 541 396 325 b 372 695 234 581 281 695 b 541 567 462 695 453 567 b 921 855 629 567 859 917 b 825 614 982 794 751 688 b 1071 504 899 540 1071 614 b 837 489 1071 393 916 546 z "},"":{"ha":1211,"x_min":0,"x_max":0,"o":"m 199 416 b 342 546 297 378 342 480 b 410 816 342 611 363 816 b 410 536 457 816 337 600 b 624 734 483 473 565 764 b 495 496 683 703 542 534 b 492 346 448 459 429 376 b 650 404 556 315 612 440 b 396 78 687 369 387 184 b 665 103 405 -28 588 -73 b 781 435 743 279 805 360 b 662 482 758 510 713 510 b 532 405 610 454 560 373 b 640 569 504 437 593 585 b 767 611 687 553 720 528 b 873 788 836 731 816 822 b 821 595 956 740 825 719 b 1027 520 819 517 925 458 b 991 875 1184 617 1096 839 b 758 778 885 910 767 901 b 687 621 752 693 716 600 b 645 816 659 642 758 778 b 476 622 589 834 519 615 b 405 929 434 629 558 940 b 199 416 253 917 -62 517 z "},"":{"ha":1276,"x_min":0,"x_max":0,"o":"m 213 463 b 381 585 271 458 346 480 b 523 725 416 690 452 767 b 376 414 593 683 273 515 b 633 524 479 314 569 584 b 483 291 686 473 425 375 b 691 312 569 167 684 396 b 579 121 698 228 619 90 b 518 237 539 151 623 232 b 355 123 413 242 418 153 b 213 214 306 100 308 214 b 99 58 117 214 99 109 b 320 -29 99 -52 230 -118 b 504 184 410 61 458 184 b 535 -12 551 184 430 -12 b 763 363 640 -12 709 198 b 959 717 817 529 859 749 b 805 300 1078 680 805 412 b 1048 186 805 188 940 135 b 1157 421 1127 223 1220 316 b 924 310 1082 547 968 414 b 862 358 867 176 805 275 b 1055 834 930 455 1237 681 b 751 452 874 986 782 524 b 546 319 721 379 558 258 b 747 536 535 380 756 449 b 623 606 737 622 667 628 b 448 491 564 576 483 456 b 607 729 413 526 605 645 b 434 846 609 808 544 853 b 113 594 309 838 113 722 b 213 463 113 522 131 470 z "}}}
